<svg width="1432" height="1185" viewBox="0 0 1432 1185" fill="none" xmlns="http://www.w3.org/2000/svg">
<path d="M844.387 330.754C844.387 330.754 863.697 318.898 881.524 335.723C900.267 353.463 884.706 386.852 888.978 396.093C893.249 405.333 906.021 403.503 906.021 403.503C906.021 403.503 900.006 417.146 878.691 409.866C857.376 402.587 861.735 356.035 861.735 356.035L845.825 344.876C845.825 344.876 841.815 338.6 842.556 336.856C843.341 335.156 844.387 330.754 844.387 330.754Z" fill="#25405B"/>
<path d="M846.566 328.749C846.566 328.749 862.563 331.713 860.514 351.589L853.846 349.584L841.684 332.279C841.684 332.279 840.202 330.623 846.566 328.749Z" fill="#FFB000"/>
<path d="M445.03 791.525C445.03 791.525 1017.52 592.022 1281.97 262.974" stroke="#2F506B" stroke-width="6.5848" stroke-miterlimit="10"/>
<path d="M1276.43 269.861L1245.09 244.405L1287.98 223.614L1330.87 202.822L1319.28 249.069L1307.73 295.273L1276.43 269.861Z" fill="#2F506B"/>
<path d="M1432 1155.79C1432 1171.92 1111.54 1185 716.236 1185C320.934 1185 0.472656 1171.92 0.472656 1155.79C0.472656 1139.66 320.934 1126.59 716.236 1126.59C1111.54 1126.59 1432 1139.62 1432 1155.79Z" fill="#FFBA32"/>
<path d="M588 888.161H446.948V1153.7H588V888.161Z" fill="#4999E0"/>
<path d="M776.91 780.89H635.859V1153.74H776.91V780.89Z" fill="#4999E0"/>
<path d="M965.779 678.022H824.728V1153.7H965.779V678.022Z" fill="#4999E0"/>
<path d="M1154.65 586.486H1013.6V1153.7H1154.65V586.486Z" fill="#4999E0"/>
<path d="M1343.52 481.351H1202.46V1153.7H1343.52V481.351Z" fill="#4999E0"/>
<path d="M945.947 1153.7H693.091C689.866 1153.7 687.207 1151.09 687.207 1147.82V1104.49C687.207 1101.26 689.822 1098.6 693.091 1098.6H945.947C949.173 1098.6 951.831 1101.22 951.831 1104.49V1147.82C951.831 1151.09 949.216 1153.7 945.947 1153.7Z" fill="#FFB300"/>
<path d="M943.768 1145.42H695.271C690.825 1145.42 687.207 1141.8 687.207 1137.35V1145.64C687.207 1150.08 690.825 1153.7 695.271 1153.7H943.768C948.214 1153.7 951.831 1150.08 951.831 1145.64V1137.35C951.831 1141.8 948.214 1145.42 943.768 1145.42Z" fill="#FF9832"/>
<path d="M708.872 1098.65H698.149V1153.7H708.872V1098.65Z" fill="#FF9832"/>
<path d="M734.808 1098.65H724.085V1153.7H734.808V1098.65Z" fill="#FF9832"/>
<path d="M760.741 1098.65H750.019V1153.7H760.741V1098.65Z" fill="#FF9832"/>
<path d="M786.72 1098.65H775.997V1153.7H786.72V1098.65Z" fill="#FF9832"/>
<path d="M812.656 1098.65H801.933V1153.7H812.656V1098.65Z" fill="#FF9832"/>
<path d="M838.59 1098.65H827.867V1153.7H838.59V1098.65Z" fill="#FF9832"/>
<path d="M864.526 1098.65H853.803V1153.7H864.526V1098.65Z" fill="#FF9832"/>
<path d="M890.461 1098.65H879.738V1153.7H890.461V1098.65Z" fill="#FF9832"/>
<path d="M916.395 1098.65H905.672V1153.7H916.395V1098.65Z" fill="#FF9832"/>
<path d="M942.373 1098.65H931.65V1153.7H942.373V1098.65Z" fill="#FF9832"/>
<path d="M943.768 1098.65H695.271C690.825 1098.65 687.207 1102.27 687.207 1106.71V1112.68C687.207 1108.24 690.825 1104.62 695.271 1104.62H943.768C948.214 1104.62 951.831 1108.24 951.831 1112.68V1106.71C951.831 1102.27 948.214 1098.65 943.768 1098.65Z" fill="#FFD732"/>
<path d="M890.896 1099.22H638.04C634.815 1099.22 632.156 1096.6 632.156 1093.33V1050.05C632.156 1046.82 634.771 1044.16 638.04 1044.16H890.896C894.121 1044.16 896.78 1046.78 896.78 1050.05V1093.37C896.78 1096.6 894.165 1099.22 890.896 1099.22Z" fill="#FFB300"/>
<path d="M888.716 1090.93H640.22C635.774 1090.93 632.156 1087.32 632.156 1082.87V1091.15C632.156 1095.6 635.774 1099.21 640.22 1099.21H888.716C893.162 1099.21 896.78 1095.6 896.78 1091.15V1082.87C896.78 1087.32 893.162 1090.93 888.716 1090.93Z" fill="#FF9832"/>
<path d="M653.82 1044.16H643.098V1099.21H653.82V1044.16Z" fill="#FF9832"/>
<path d="M679.756 1044.16H669.033V1099.21H679.756V1044.16Z" fill="#FF9832"/>
<path d="M705.734 1044.16H695.012V1099.21H705.734V1044.16Z" fill="#FF9832"/>
<path d="M731.669 1044.16H720.946V1099.21H731.669V1044.16Z" fill="#FF9832"/>
<path d="M757.604 1044.16H746.881V1099.21H757.604V1044.16Z" fill="#FF9832"/>
<path d="M783.538 1044.16H772.815V1099.21H783.538V1044.16Z" fill="#FF9832"/>
<path d="M809.474 1044.16H798.751V1099.21H809.474V1044.16Z" fill="#FF9832"/>
<path d="M835.41 1044.16H824.687V1099.21H835.41V1044.16Z" fill="#FF9832"/>
<path d="M861.388 1044.16H850.666V1099.21H861.388V1044.16Z" fill="#FF9832"/>
<path d="M887.322 1044.16H876.599V1099.21H887.322V1044.16Z" fill="#FF9832"/>
<path d="M888.716 1044.16H640.22C635.774 1044.16 632.156 1047.78 632.156 1052.23V1058.2C632.156 1053.75 635.774 1050.13 640.22 1050.13H888.716C893.162 1050.13 896.78 1053.75 896.78 1058.2V1052.23C896.78 1047.78 893.162 1044.16 888.716 1044.16Z" fill="#FFD732"/>
<path d="M945.947 1044.16H693.048C689.822 1044.16 687.207 1041.55 687.207 1038.32V994.995C687.207 991.77 689.822 989.155 693.048 989.155H945.947C949.173 989.155 951.788 991.77 951.788 994.995V1038.32C951.831 1041.55 949.216 1044.16 945.947 1044.16Z" fill="#FFB300"/>
<path d="M943.768 1035.88H695.271C690.825 1035.88 687.207 1032.26 687.207 1027.82V1036.1C687.207 1040.55 690.825 1044.16 695.271 1044.16H943.768C948.214 1044.16 951.831 1040.55 951.831 1036.1V1027.82C951.831 1032.26 948.214 1035.88 943.768 1035.88Z" fill="#FF9832"/>
<path d="M708.872 989.111H698.149V1044.16H708.872V989.111Z" fill="#FF9832"/>
<path d="M734.808 989.111H724.085V1044.16H734.808V989.111Z" fill="#FF9832"/>
<path d="M760.741 989.111H750.019V1044.16H760.741V989.111Z" fill="#FF9832"/>
<path d="M786.72 989.111H775.997V1044.16H786.72V989.111Z" fill="#FF9832"/>
<path d="M812.656 989.111H801.933V1044.16H812.656V989.111Z" fill="#FF9832"/>
<path d="M838.59 989.111H827.867V1044.16H838.59V989.111Z" fill="#FF9832"/>
<path d="M864.526 989.111H853.803V1044.16H864.526V989.111Z" fill="#FF9832"/>
<path d="M890.461 989.111H879.738V1044.16H890.461V989.111Z" fill="#FF9832"/>
<path d="M916.395 989.111H905.672V1044.16H916.395V989.111Z" fill="#FF9832"/>
<path d="M942.373 989.111H931.65V1044.16H942.373V989.111Z" fill="#FF9832"/>
<path d="M943.768 989.111H695.271C690.825 989.111 687.207 992.729 687.207 997.175V1003.15C687.207 998.701 690.825 995.083 695.271 995.083H943.768C948.214 995.083 951.831 998.701 951.831 1003.15V997.175C951.831 992.729 948.214 989.111 943.768 989.111Z" fill="#FFD732"/>
<path d="M605.74 577.55C605.74 577.55 589.307 587.227 583.858 588.142C578.453 589.058 567.6 590.627 564.461 590.278C557.749 589.581 555.177 571.404 557.444 565.259C559.71 559.113 574.574 562.164 574.574 562.164C574.574 562.164 565.638 560.028 565.29 557.805C564.941 555.582 574.53 554.623 579.02 554.274C583.509 553.926 599.724 557.718 599.724 557.718L605.74 577.55Z" fill="#EF9D7D"/>
<path d="M694.181 498.263C700.196 493.774 722.295 473.244 741.736 454.937C761.176 436.63 786.501 425.558 812.959 421.766L794.521 445.478L808.382 468.1C808.382 468.1 741.997 539.89 717.936 551.528C693.876 563.166 604.302 582.999 604.302 582.999L595.323 552.051C595.323 552.051 684.286 505.717 694.181 498.263Z" fill="#FFB000"/>
<path d="M767.845 481.351L728.529 544.772C743.959 533.308 765.797 512.125 782.709 494.907C782.186 492.335 767.845 481.351 767.845 481.351Z" fill="#F6921E"/>
<path d="M604.301 583.043C604.301 583.043 609.313 581.909 617.29 580.079L607.003 545.949C599.898 549.698 595.365 552.051 595.365 552.051L604.301 583.043Z" fill="#FFC85A"/>
<path d="M800.755 948.356L799.403 989.111H722.731C722.731 989.111 726.131 967.317 759.433 967.317L761.525 945.523L800.755 948.356Z" fill="#FFB000"/>
<path d="M853.975 948.356L855.326 989.111H931.998C931.998 989.111 928.598 967.317 895.297 967.317L893.205 945.523L853.975 948.356Z" fill="#FFB000"/>
<path d="M761.874 647.335L758.213 814.976L760.741 948.356H800.711C800.711 948.356 825.644 695.5 824.598 663.332C823.595 631.164 761.874 647.335 761.874 647.335Z" fill="#25405B"/>
<path d="M865.92 615.298H782.71V719.779H865.92V615.298Z" fill="#25405B"/>
<path d="M893.032 647.815L892.988 948.356H853.976C853.976 948.356 817.493 681.247 818.539 649.079C819.585 616.911 893.032 647.815 893.032 647.815Z" fill="#2F506B"/>
<path d="M845.825 414.4L844.038 396.136L812.96 404.113V421.81L800.886 453.193L816.839 456.375L830.308 448.616L845.825 414.4Z" fill="#EF9D7D"/>
<path d="M911.034 573.148C911.034 573.148 911.034 573.104 910.991 573.061C910.991 573.104 911.034 573.104 911.034 573.148Z" fill="#2F506B"/>
<path d="M1052.78 815.341C1063.63 759.031 1026.77 704.592 970.459 693.749C914.149 682.906 859.71 719.764 848.867 776.074C838.023 832.384 874.881 886.822 931.191 897.666C987.501 908.509 1041.94 871.651 1052.78 815.341Z" fill="#FFD732"/>
<path d="M1045.64 827.374C1063.11 774.961 1034.79 718.309 982.372 700.84C929.958 683.37 873.307 711.698 855.837 764.112C838.368 816.526 866.696 873.177 919.109 890.646C971.523 908.116 1028.17 879.788 1045.64 827.374Z" fill="#FFB300"/>
<path d="M1032.41 811.417C1041.08 766.36 1011.59 722.8 966.535 714.123C921.477 705.447 877.917 734.939 869.241 779.997C860.564 825.054 890.057 868.614 935.114 877.291C980.172 885.967 1023.73 856.475 1032.41 811.417Z" fill="#FF9832"/>
<path d="M1026.03 810.189C1034.03 768.678 1006.83 728.542 965.299 720.544C923.764 712.546 883.613 739.713 875.619 781.225C867.626 822.736 894.816 862.872 936.352 870.87C977.887 878.869 1018.04 851.701 1026.03 810.189Z" fill="#FFD732"/>
<path d="M1000.08 737.258C1011.29 750.596 1018.09 767.77 1018.09 786.556C1018.09 828.837 983.826 863.097 941.545 863.097C922.758 863.097 905.585 856.341 892.247 845.095C906.282 861.746 927.292 872.382 950.829 872.382C993.11 872.382 1027.41 838.121 1027.41 795.841C1027.37 772.303 1016.78 751.293 1000.08 737.258Z" fill="#FFC332"/>
<path d="M935.741 753.301C935.741 754.077 935.539 754.808 935.136 755.494C934.749 756.165 934.167 756.725 933.391 757.172C932.63 757.605 931.727 757.859 930.683 757.933V759.746H929.251V757.911C927.759 757.777 926.558 757.329 925.648 756.568C924.738 755.792 924.268 754.748 924.238 753.435H927.595C927.685 754.509 928.237 755.158 929.251 755.382V751.108C928.177 750.839 927.312 750.571 926.655 750.302C925.999 750.034 925.432 749.601 924.954 749.004C924.477 748.408 924.238 747.594 924.238 746.565C924.238 745.267 924.701 744.208 925.626 743.387C926.566 742.567 927.774 742.097 929.251 741.978V740.165H930.683V741.978C932.115 742.097 933.257 742.53 934.107 743.276C934.972 744.021 935.457 745.051 935.562 746.364H932.183C932.138 745.931 931.981 745.558 931.713 745.245C931.459 744.917 931.116 744.685 930.683 744.551V748.781C931.802 749.064 932.682 749.34 933.324 749.609C933.98 749.862 934.547 750.287 935.025 750.884C935.502 751.466 935.741 752.271 935.741 753.301ZM927.505 746.408C927.505 746.901 927.655 747.304 927.953 747.617C928.251 747.915 928.684 748.161 929.251 748.355V744.484C928.714 744.559 928.289 744.76 927.975 745.088C927.662 745.416 927.505 745.856 927.505 746.408ZM930.683 755.427C931.25 755.322 931.69 755.091 932.003 754.733C932.332 754.375 932.496 753.942 932.496 753.435C932.496 752.943 932.339 752.547 932.026 752.249C931.713 751.951 931.265 751.705 930.683 751.511V755.427Z" fill="#FF9832"/>
<path d="M900.179 441.381C900.179 441.381 955.928 521.714 962.074 547.736C968.22 573.758 968.22 665.468 968.22 665.468L936.052 667.517C936.052 667.517 915.173 581.953 910.03 570.664C904.886 559.374 877.208 520.624 867.575 504.932C850.183 476.556 867.27 393.739 900.179 441.381Z" fill="#FFB000"/>
<path d="M962.727 665.686L942.067 666.994C942.067 666.994 934.7 681.944 934.003 686.39C933.741 688.003 933.436 690.488 933.262 692.754H940.672C940.672 692.754 934.351 706.31 939.8 709.928C945.292 713.502 963.556 715.159 965.779 708.751C966.825 705.744 967.74 694.847 968.089 689.354C968.437 683.906 962.727 665.686 962.727 665.686Z" fill="#EF9D7D"/>
<path d="M894.73 597.557C890.241 578.684 892.202 544.511 895.428 523.065C898.61 501.62 880.608 426.953 880.608 426.953L845.824 414.356C834.971 436.194 817.666 446.088 812.959 443.517C808.295 440.945 812.959 421.766 812.959 421.766L803.544 426.212C791.906 438.024 775.124 457.16 768.848 477.603C761.089 502.709 774.34 521.801 774.34 521.801C774.34 521.801 772.814 566.741 767.583 593.983C764.837 608.149 757.82 632.82 761.917 647.292C765.796 661.022 783.231 655.399 806.551 652.566L813.046 627.459L821.676 651.869C844.517 652.784 870.408 661.196 891.374 656.968C897.738 655.748 903.971 636.482 894.73 597.557Z" fill="#FFB000"/>
<path d="M933.349 656.532C935.005 663.245 936.052 667.517 936.052 667.517L968.22 665.468C968.22 665.468 968.22 660.804 968.132 653.394L933.349 656.532Z" fill="#FFC85A"/>
<path d="M844.822 396.877C844.822 396.877 858.203 378.308 861.647 370.811C863.782 366.104 862.867 346.751 852.711 340.648C852.711 340.648 851.665 331.102 837.15 328.4C829.391 326.961 795 326.787 791.252 347.622C788.811 361.222 796.918 374.691 796.918 374.691L818.058 375.039L844.822 396.877Z" fill="#25405B"/>
<path d="M849.18 381.926C848.744 393.739 841.683 404.723 830.524 409.823C825.991 411.871 820.978 413.266 815.879 412.961C799.01 412.089 793.605 370.942 798.836 356.078C798.836 356.078 803.412 363.27 817.186 361.919C840.026 359.696 840.332 369.591 840.419 376.347C840.419 376.347 844.516 367.847 848.831 366.714C853.059 365.537 859.293 374.821 849.18 381.926Z" fill="#F4AB88"/>
<path d="M809.864 517.355C815.531 517.355 865.004 421.33 865.004 421.33L845.825 414.4C834.971 436.237 817.667 446.132 812.959 443.56C808.295 440.988 812.959 421.81 812.959 421.81L803.544 426.256C803.5 426.299 803.501 426.299 803.457 426.343C797.616 432.314 795.219 440.901 796.788 449.096C796.788 449.096 804.198 517.355 809.864 517.355Z" fill="#FFE1A6"/>
<path d="M818.538 553.621C818.538 556.715 816.054 559.2 812.959 559.2C809.864 559.2 807.379 556.715 807.379 553.621C807.379 550.526 809.864 548.041 812.959 548.041C816.054 548.085 818.538 550.569 818.538 553.621Z" fill="#FFE1A6"/>
<path d="M818.538 592.676C818.538 595.77 816.054 598.255 812.959 598.255C809.864 598.255 807.379 595.77 807.379 592.676C807.379 589.581 809.864 587.096 812.959 587.096C816.054 587.14 818.538 589.624 818.538 592.676Z" fill="#FFE1A6"/>
<path d="M445.03 669.13C445.03 669.13 461.463 678.806 466.912 679.721C472.316 680.637 483.17 682.206 486.308 681.857C493.021 681.16 495.593 662.984 493.326 656.838C491.059 650.692 476.196 653.743 476.196 653.743C476.196 653.743 485.131 651.607 485.48 649.384C485.829 647.161 476.24 646.202 471.75 645.853C467.26 645.505 451.045 649.297 451.045 649.297L445.03 669.13Z" fill="#EF9D7D"/>
<path d="M197.754 539.759C197.754 539.759 183.632 521.67 179.97 514.304C177.66 509.64 177.835 490.287 187.773 483.792C187.773 483.792 188.47 474.203 202.898 470.934C210.613 469.19 244.612 473.81 251.063 484.795C254.463 490.548 244.917 515.742 244.917 515.742L223.777 516.876L197.754 539.759Z" fill="#25405B"/>
<path d="M197.448 558.895L199.235 540.588L230.357 548.608V566.305L242.474 597.732L226.477 600.914L212.965 593.155L197.448 558.895Z" fill="#EF9D7D"/>
<path d="M212.704 574.586C212.704 574.586 224.908 585.789 230.052 572.538L232.493 575.589C232.493 575.589 233.234 581.822 232.188 583.304C231.141 584.786 223.731 585.745 223.383 585.614C223.034 585.484 218.283 584.219 218.283 584.219L212.704 574.586Z" fill="#EDE6D6"/>
<path d="M160.18 860.656C160.18 860.656 180.1 925.123 170.903 957.553C162.577 987.019 84.4673 1067.44 84.4673 1067.44L105.39 1097.3C105.39 1097.3 192.959 1046.78 234.76 1004.32C259.431 979.304 280.309 918.934 242.083 813.363L197.187 799.197C197.187 799.197 170.205 836.901 169.334 842.48C168.375 848.147 160.18 860.656 160.18 860.656Z" fill="#25405B"/>
<path d="M263.135 808.263C263.135 808.263 307.552 872.338 340.461 925.821C373.37 979.304 390.282 1110.02 390.282 1110.02L350.966 1115.3C350.966 1115.3 307.595 997.524 248.185 942.254C197.709 895.309 150.852 829.839 150.852 829.839L263.135 808.263Z" fill="#2F506B"/>
<path d="M344.515 620.223C333.139 615.298 269.63 579.032 253.808 569.661L226.304 617.564C226.304 617.564 307.727 671.963 333.88 677.673C360.033 683.383 451.873 681.77 451.873 681.77L453.355 649.515C453.355 649.471 355.935 625.149 344.515 620.223Z" fill="#2F506B"/>
<path d="M254.461 635.654C278.871 650.953 312.957 671.222 330.479 676.67L275.645 625.759C275.645 625.803 267.189 614.078 254.461 635.654Z" fill="#25405B"/>
<path d="M453.617 639.795L436.443 636.787L440.409 681.857L451.873 681.726L453.617 639.795Z" fill="#3F6782"/>
<path d="M227.394 816.501L267.844 811.009C267.844 811.009 270.111 658.843 263.18 621.139C256.206 583.435 230.402 566.305 230.402 566.305C230.402 566.305 235.066 585.484 230.402 588.055C225.738 590.627 208.346 580.732 197.493 558.851L181.583 598.822L193.831 777.272L207.387 807.435L227.394 816.501Z" fill="#E2DBC5"/>
<path d="M230.357 652.086L247.139 676.714C247.139 676.714 259.126 661.284 259.126 659.976C259.126 658.668 253.503 645.243 253.503 645.243L230.837 587.707L223.775 590.801L230.357 652.086Z" fill="#F15A29"/>
<path d="M143.357 699.031C143.357 699.031 133.026 838.078 137.124 853.595C141.221 869.113 206.69 860.22 224.867 853.377C243.043 846.534 267.147 830.101 265.099 820.86C263.05 811.62 252.197 710.538 247.62 672.922C203.639 619.439 197.45 558.851 197.45 558.851C197.45 558.851 168.071 566.828 152.162 577.115L162.274 617.347L160.443 636.09L143.357 699.031Z" fill="#2F506B"/>
<path d="M142.004 588.317C142.004 588.317 86.2112 668.781 80.0216 694.803C73.8321 720.869 73.832 812.709 73.832 812.709L106.044 814.758C106.044 814.758 126.966 729.063 132.11 717.774C137.253 706.485 164.975 667.647 174.608 651.956C192.087 623.536 174.957 540.588 142.004 588.317Z" fill="#2F506B"/>
<path d="M230.358 560.725C230.358 560.725 246.355 563.864 260.522 573.845C274.688 583.827 276.039 603.921 275.603 630.423C275.167 656.925 271.593 704.785 282.926 759.967C294.215 815.15 299.925 835.593 293.561 838.688C278.611 845.88 270.024 843.7 267.626 834.678L266.362 829.665C263.268 817.112 254.942 741.53 247.663 673.009C258.473 614.949 242.302 585.484 230.358 566.392V560.725Z" fill="#2F506B"/>
<path d="M258.123 603.268L250.015 599.563L252.631 575.72L230.313 560.725V566.305C242.257 585.44 258.428 614.862 247.618 672.922C247.618 672.922 260.782 638.051 258.123 603.268Z" fill="#3F6782"/>
<path d="M230.358 566.305L229.53 583.13L234.892 578.074L243.043 585.571C243.043 585.571 236.243 572.451 230.358 566.305Z" fill="#EDE6D6"/>
<path d="M105.39 1097.3L84.4677 1067.44H82.9857L57.748 1079.69L76.1859 1146.16L105.39 1153.7C105.39 1153.7 105.041 1140.01 97.5005 1131.43L105.39 1097.3Z" fill="#F15A29"/>
<path d="M350.967 1115.3L356.459 1153.7H434.613C434.613 1153.7 428.423 1136.22 411.293 1135.52L390.283 1110.02L350.967 1115.3Z" fill="#FC673F"/>
<path d="M192.827 524.939C193.699 536.752 201.153 547.475 212.573 552.139C217.193 554.013 222.25 555.19 227.349 554.754C244.218 553.228 248.054 511.863 242.257 497.174C242.257 497.174 233.452 503.843 219.634 502.709C205.817 501.576 201.153 500.181 201.153 500.181C201.153 500.181 202.591 511.471 200.63 517.442C200.63 517.442 197.012 510.686 192.653 509.684C188.338 508.725 182.41 518.227 192.827 524.939Z" fill="#F4AB88"/>
<path d="M67.6001 791.7L110.099 799.241L106.263 814.758L68.1231 812.404L67.6001 791.7Z" fill="#3F6782"/>
<path d="M199.28 603.05L192.088 613.99C192.088 613.99 222.033 657.535 247.663 672.922C203.682 619.439 197.493 558.851 197.493 558.851L181.583 583.784L199.28 603.05Z" fill="#3F6782"/>
<path d="M257.208 707.749C257.208 711.018 254.549 713.633 251.324 713.633C248.055 713.633 245.439 710.974 245.439 707.749C245.439 704.48 248.098 701.821 251.324 701.821C254.593 701.821 257.208 704.48 257.208 707.749Z" fill="#3F6782"/>
<path d="M263.137 753.691C263.137 756.96 260.478 759.575 257.209 759.575C253.94 759.575 251.324 756.916 251.324 753.691C251.324 750.422 253.983 747.806 257.209 747.806C260.478 747.763 263.137 750.422 263.137 753.691Z" fill="#3F6782"/>
<path d="M211.816 752.366L166.295 754.919L166.881 765.363L212.402 762.81L211.816 752.366Z" fill="#3F6782"/>
<path d="M197.449 558.895L222.948 585.178L205.862 582.432L200.675 588.883C200.675 588.84 196.665 566.741 197.449 558.895Z" fill="#EDE6D6"/>
<path d="M227.045 593.852C227.045 593.852 218.284 590.496 217.761 586.486C217.281 582.476 228.44 580.907 231.622 581.255C234.804 581.604 232.711 589.406 230.968 592.719C229.704 595.117 227.045 593.852 227.045 593.852Z" fill="#FC673F"/>
<path d="M184.634 862.967H0.430176V980.306H184.634V862.967Z" fill="#754C28"/>
<path d="M184.634 862.967H0.430176V921.636H184.634V862.967Z" fill="#8A5D3B"/>
<path d="M72.9182 901.629H112.148C117.553 901.629 121.911 897.271 121.911 891.866V852.767C121.911 847.362 117.553 843.003 112.148 843.003H72.9182C67.5132 843.003 63.1543 847.362 63.1543 852.767V891.866C63.1543 897.227 67.5132 901.629 72.9182 901.629Z" stroke="#8A5D3B" stroke-width="1.1155" stroke-miterlimit="10"/>
<path d="M100.421 921.636C100.421 925.995 96.8899 929.526 92.5311 929.526C88.1722 929.526 84.6416 925.995 84.6416 921.636C84.6416 917.278 88.1722 913.747 92.5311 913.747C96.8899 913.747 100.421 917.278 100.421 921.636Z" fill="#FFB000"/>
<path d="M80.3709 813.145C80.3709 813.145 74.6608 831.409 75.0095 836.857C75.3582 842.349 76.2735 853.246 77.3197 856.254C79.5427 862.618 97.8497 861.005 103.342 857.431C108.834 853.813 102.47 839.995 102.47 839.995C102.47 839.995 106.567 848.234 108.79 848.059C111.013 847.885 109.837 838.339 109.139 833.893C108.442 829.447 101.075 814.453 101.075 814.453L80.3709 813.145Z" fill="#EF9D7D"/>
<path d="M550.613 538.116L446.109 577.122L497.005 713.48L601.509 674.473L550.613 538.116Z" fill="#E6E7E8"/>
<path d="M484.884 579.233L463.975 587.037L471.779 607.946L492.688 600.142L484.884 579.233Z" fill="#BBBDBF"/>
<path d="M514.28 568.25L493.371 576.055L495.383 581.445L516.292 573.641L514.28 568.25Z" fill="#BBBDBF"/>
<path d="M531.713 572.042L496.715 585.105L498.727 590.496L533.725 577.433L531.713 572.042Z" fill="#BBBDBF"/>
<path d="M556.05 590.411L477.56 619.708L479.161 623.996L557.651 594.699L556.05 590.411Z" fill="#BBBDBF"/>
<path d="M559.532 599.813L481.042 629.11L482.643 633.398L561.133 604.101L559.532 599.813Z" fill="#BBBDBF"/>
<path d="M563.059 609.174L484.568 638.471L486.169 642.759L564.659 613.462L563.059 609.174Z" fill="#BBBDBF"/>
<path d="M566.545 618.554L488.055 647.851L489.655 652.139L568.146 622.842L566.545 618.554Z" fill="#BBBDBF"/>
<path d="M570.033 627.92L491.543 657.216L493.143 661.504L571.634 632.208L570.033 627.92Z" fill="#BBBDBF"/>
<path d="M573.52 637.307L495.029 666.604L496.63 670.892L575.12 641.595L573.52 637.307Z" fill="#BBBDBF"/>
<path d="M577.047 646.668L498.556 675.965L500.157 680.253L578.647 650.956L577.047 646.668Z" fill="#BBBDBF"/>
<path d="M580.532 656.044L502.042 685.341L503.642 689.629L582.133 660.332L580.532 656.044Z" fill="#BBBDBF"/>
<path d="M704.163 275.004C681.322 275.004 662.797 293.529 662.797 316.37C662.797 339.21 681.322 357.735 704.163 357.735C727.003 357.735 745.528 339.21 745.528 316.37C745.528 293.529 727.003 275.004 704.163 275.004ZM704.163 333.892C694.486 333.892 686.64 326.046 686.64 316.37C686.64 306.693 694.486 298.803 704.163 298.803C713.839 298.803 721.685 306.649 721.685 316.37C721.685 326.046 713.839 333.892 704.163 333.892Z" fill="#2F506B"/>
<path d="M713.752 262.494H694.573L692.568 277.358H715.757L713.752 262.494Z" fill="#2F506B"/>
<path d="M694.573 370.245H713.751L715.756 355.381H692.524L694.573 370.245Z" fill="#2F506B"/>
<path d="M757.994 325.959V306.78L743.174 304.775V327.964L757.994 325.959Z" fill="#2F506B"/>
<path d="M650.287 306.78V325.959L665.151 327.964V304.731L650.287 306.78Z" fill="#2F506B"/>
<path d="M749.015 285.073L735.459 271.517L723.559 280.584L739.948 296.973L749.015 285.073Z" fill="#2F506B"/>
<path d="M659.267 347.666L672.823 361.222L684.766 352.156L668.333 335.766L659.267 347.666Z" fill="#2F506B"/>
<path d="M735.458 361.222L749.014 347.666L739.948 335.766L723.515 352.156L735.458 361.222Z" fill="#2F506B"/>
<path d="M672.867 271.517L659.311 285.073L668.334 296.973L684.767 280.54L672.867 271.517Z" fill="#2F506B"/>
<path d="M617.247 368.893C601.773 368.893 589.263 381.447 589.263 396.877C589.263 412.307 601.817 424.861 617.247 424.861C632.677 424.861 645.231 412.307 645.231 396.877C645.231 381.447 632.721 368.893 617.247 368.893ZM617.247 408.777C610.709 408.777 605.391 403.459 605.391 396.921C605.391 390.382 610.709 385.065 617.247 385.065C623.785 385.065 629.103 390.382 629.103 396.921C629.103 403.459 623.829 408.777 617.247 408.777Z" fill="#2F506B"/>
<path d="M623.742 360.437H610.797L609.402 370.506H625.137L623.742 360.437Z" fill="#2F506B"/>
<path d="M610.797 433.317H623.742L625.137 423.292H609.402L610.797 433.317Z" fill="#2F506B"/>
<path d="M653.731 403.372V390.426L643.662 389.031V404.767L653.731 403.372Z" fill="#2F506B"/>
<path d="M580.808 390.382V403.372L590.876 404.723V389.031L580.808 390.382Z" fill="#2F506B"/>
<path d="M647.629 375.693L638.432 366.54L630.368 372.686L641.483 383.757L647.629 375.693Z" fill="#2F506B"/>
<path d="M586.91 418.061L596.063 427.258L604.127 421.112L593.056 409.997L586.91 418.061Z" fill="#2F506B"/>
<path d="M638.432 427.258L647.629 418.061L641.483 409.997L630.368 421.112L638.432 427.258Z" fill="#2F506B"/>
<path d="M596.063 366.54L586.91 375.693L593.056 383.757L604.171 372.642L596.063 366.54Z" fill="#2F506B"/>
<path d="M1045.24 160.672C1054.4 149.949 1059.98 136.045 1059.98 120.832C1059.98 86.9644 1032.52 59.5038 998.647 59.5038C964.779 59.5038 937.318 86.9644 937.318 120.832C937.318 136.045 942.854 149.949 952.051 160.672H952.008C952.008 160.672 952.051 160.716 952.095 160.759C953.315 162.198 954.623 163.593 955.974 164.9C961.205 171.003 969.661 183.077 969.661 197.461H998.603H1027.55C1027.55 183.077 1036 171.003 1041.23 164.9C1042.58 163.593 1043.89 162.198 1045.11 160.759C1045.2 160.716 1045.24 160.672 1045.24 160.672Z" fill="#FFD732"/>
<path d="M1059.93 120.832C1059.93 86.9644 1032.47 59.5038 998.603 59.5038C996.598 59.5038 994.593 59.591 992.632 59.8089C1023.71 62.8165 1047.99 88.9695 1047.99 120.832C1047.99 136.045 1042.45 149.949 1033.26 160.672H1033.3C1033.3 160.672 1033.26 160.716 1033.21 160.759C1031.99 162.198 1030.68 163.593 1029.33 164.9C1024.1 171.003 1015.65 183.077 1015.65 197.461V204.696C1015.65 205.132 1015.65 205.568 1015.6 206.004C1017.43 206.178 1018.92 207.704 1018.92 209.578C1018.92 211.583 1017.3 213.196 1015.3 213.196H1014.38C1013.64 215.593 1012.6 217.904 1011.29 219.996C1012.16 220.65 1012.73 221.696 1012.73 222.873C1012.73 224.878 1011.11 226.491 1009.11 226.491H1005.71C1002.05 229.672 997.601 231.939 992.675 232.942C994.593 233.334 996.598 233.595 998.647 233.595C1005.93 233.595 1012.55 230.893 1017.65 226.491H1021.05C1023.06 226.491 1024.67 224.878 1024.67 222.873C1024.67 221.696 1024.1 220.65 1023.23 219.996C1024.54 217.904 1025.58 215.637 1026.33 213.196H1027.24C1029.25 213.196 1030.86 211.583 1030.86 209.578C1030.86 207.704 1029.42 206.135 1027.55 206.004C1027.55 205.568 1027.59 205.132 1027.59 204.696V197.461C1027.59 183.077 1036.05 171.003 1041.28 164.9C1042.63 163.593 1043.94 162.198 1045.16 160.759C1045.2 160.716 1045.24 160.672 1045.24 160.672H1045.2C1054.4 149.949 1059.93 136.045 1059.93 120.832Z" fill="#FFC332"/>
<path d="M998.647 244.013C990.452 244.013 983.827 237.388 983.827 229.193H1013.47C1013.47 237.388 1006.84 244.013 998.647 244.013Z" fill="#2F506B"/>
<path d="M1012.12 236.603H985.179C976.636 236.603 969.705 229.672 969.705 221.129V197.461H1027.59V221.129C1027.59 229.672 1020.66 236.603 1012.12 236.603Z" fill="#25405B"/>
<path d="M1027.24 213.24H970.009C968.004 213.24 966.392 211.627 966.392 209.622C966.392 207.617 968.004 206.004 970.009 206.004H1027.24C1029.25 206.004 1030.86 207.617 1030.86 209.622C1030.86 211.627 1029.25 213.24 1027.24 213.24Z" fill="#2F506B"/>
<path d="M1027.24 226.403H970.009C968.004 226.403 966.392 224.791 966.392 222.785C966.392 220.78 968.004 219.168 970.009 219.168H1027.24C1029.25 219.168 1030.86 220.78 1030.86 222.785C1030.86 224.791 1029.25 226.403 1027.24 226.403Z" fill="#2F506B"/>
<path d="M1019.48 156.618C1017.26 156.618 1016.17 155.093 1015.43 154.09C1014.78 153.219 1014.6 153.044 1014.25 153.044C1013.9 153.044 1013.73 153.219 1013.07 154.09C1012.33 155.093 1011.24 156.618 1009.02 156.618C1006.8 156.618 1005.71 155.093 1004.97 154.09C1004.31 153.219 1004.14 153.044 1003.79 153.044C1003.44 153.044 1003.27 153.219 1002.61 154.09C1001.87 155.093 1000.78 156.618 998.56 156.618C996.337 156.618 995.248 155.093 994.507 154.09C993.853 153.219 993.678 153.044 993.33 153.044C992.981 153.044 992.806 153.219 992.153 154.09C991.412 155.093 990.322 156.618 988.099 156.618C985.876 156.618 984.786 155.093 984.045 154.09C983.391 153.219 983.217 153.044 982.868 153.044C982.52 153.044 982.345 153.219 981.692 154.09C980.951 155.093 979.861 156.618 977.638 156.618V153.044C977.986 153.044 978.161 152.87 978.815 151.998C979.556 150.996 980.645 149.47 982.868 149.47C985.091 149.47 986.181 150.996 986.922 151.998C987.576 152.87 987.75 153.044 988.099 153.044C988.448 153.044 988.622 152.87 989.276 151.998C990.017 150.996 991.107 149.47 993.33 149.47C995.553 149.47 996.642 150.996 997.383 151.998C998.037 152.87 998.212 153.044 998.56 153.044C998.909 153.044 999.083 152.87 999.737 151.998C1000.48 150.996 1001.57 149.47 1003.79 149.47C1006.01 149.47 1007.1 150.996 1007.84 151.998C1008.5 152.87 1008.67 153.044 1009.02 153.044C1009.37 153.044 1009.54 152.87 1010.2 151.998C1010.94 150.996 1012.03 149.47 1014.25 149.47C1016.47 149.47 1017.56 150.996 1018.31 151.998C1018.96 152.87 1019.13 153.044 1019.48 153.044V156.618Z" fill="#25405B"/>
<path d="M1017 166.6C1015.04 166.6 1014.08 165.249 1013.42 164.377C1012.86 163.593 1012.68 163.462 1012.38 163.462C1012.07 163.462 1011.9 163.636 1011.33 164.377C1010.68 165.249 1009.72 166.6 1007.76 166.6C1005.79 166.6 1004.84 165.249 1004.18 164.377C1003.62 163.593 1003.44 163.462 1003.14 163.462C1002.83 163.462 1002.66 163.636 1002.13 164.377C1001.48 165.249 1000.52 166.6 998.559 166.6C996.598 166.6 995.639 165.249 994.985 164.377C994.418 163.593 994.244 163.462 993.982 163.462C993.677 163.462 993.503 163.636 992.98 164.377C992.326 165.249 991.367 166.6 989.406 166.6C987.444 166.6 986.485 165.249 985.831 164.377C985.265 163.593 985.09 163.462 984.829 163.462C984.524 163.462 984.349 163.636 983.783 164.377C983.129 165.249 982.17 166.6 980.208 166.6V163.462C980.514 163.462 980.688 163.288 981.255 162.547C981.908 161.675 982.867 160.323 984.829 160.323C986.79 160.323 987.749 161.675 988.403 162.547C988.97 163.331 989.144 163.462 989.406 163.462C989.711 163.462 989.885 163.288 990.408 162.547C991.062 161.675 992.021 160.323 993.982 160.323C995.944 160.323 996.903 161.675 997.557 162.547C998.123 163.331 998.298 163.462 998.559 163.462C998.864 163.462 999.039 163.288 999.562 162.547C1000.22 161.675 1001.17 160.323 1003.14 160.323C1005.1 160.323 1006.06 161.675 1006.71 162.547C1007.28 163.331 1007.45 163.462 1007.76 163.462C1008.06 163.462 1008.24 163.288 1008.8 162.547C1009.46 161.675 1010.42 160.323 1012.38 160.323C1014.34 160.323 1015.3 161.675 1015.95 162.547C1016.52 163.331 1016.69 163.462 1017 163.462V166.6Z" fill="#25405B"/>
<path d="M978.841 144.199L974.437 145.068L985.466 200.962L989.871 200.092L978.841 144.199Z" fill="#25405B"/>
<path d="M1018.5 144.339L1007.46 200.226L1011.86 201.096L1022.91 145.209L1018.5 144.339Z" fill="#25405B"/>
<path d="M998.602 0.703186V42.0685" stroke="#FFD732" stroke-width="2" stroke-miterlimit="10"/>
<path d="M1120.87 122.968H1079.5" stroke="#FFD732" stroke-width="2" stroke-miterlimit="10"/>
<path d="M917.703 122.968H876.337" stroke="#FFD732" stroke-width="2" stroke-miterlimit="10"/>
<path d="M1085.78 35.7918L1055.83 65.7369" stroke="#FFD732" stroke-width="2" stroke-miterlimit="10"/>
<path d="M941.371 65.7369L911.425 35.7918" stroke="#FFD732" stroke-width="2" stroke-miterlimit="10"/>
<path d="M1167.81 791.177L1157.74 830.711L1231.36 852.157C1231.36 852.157 1234.2 830.275 1202.2 820.947L1206.3 799.415L1167.81 791.177Z" fill="#D0D2D3"/>
<path d="M1307.99 758.703L1310.17 799.153L1386.8 797.105C1386.8 797.105 1381.92 775.441 1348.62 776.357L1346.61 757.657L1307.99 758.703Z" fill="#D0D2D3"/>
<path d="M1153.43 254.3C1153.43 254.3 1180.8 267.681 1167.03 303.685C1153.3 339.689 1164.24 366.104 1164.24 366.104C1164.24 366.104 1132.46 388.159 1125.4 388.508C1118.34 388.857 1075.54 371.378 1073.01 369.068C1070.44 366.758 1063.55 319.639 1073.75 282.981C1083.77 247.108 1101.3 254.997 1101.3 254.997L1153.43 254.3Z" fill="#FFB000"/>
<path d="M1307.99 758.703C1307.99 758.703 1279.88 591.629 1274.78 589.93C1269.72 588.273 1194.27 597.557 1194.27 597.557C1124.48 607.191 1133.86 531.696 1133.86 531.696C1133.86 531.696 1263.71 485.361 1317.23 531.914C1361.43 570.315 1346.57 757.614 1346.57 757.614L1320.11 758.703" fill="#25405B"/>
<path d="M1167.07 792.092C1167.07 792.092 1186.56 622.577 1182.15 619.526C1177.75 616.475 1100.43 604.357 1100.43 604.357C1030.77 593.94 1061.02 524.111 1061.02 524.111C1061.02 524.111 1198.67 516.265 1236.9 576.025C1268.46 625.323 1205.91 801.42 1205.91 801.42L1175.75 794.446" fill="#2F506B"/>
<path d="M1318.1 462.957C1318.1 462.957 1332.53 471.457 1337.28 472.241C1342.03 473.026 1351.54 474.421 1354.33 474.115C1360.21 473.505 1362.48 457.552 1360.47 452.147C1358.51 446.742 1345.43 449.401 1345.43 449.401C1345.43 449.401 1353.28 447.527 1353.59 445.609C1353.89 443.691 1345.48 442.819 1341.56 442.514C1337.63 442.209 1323.38 445.522 1323.38 445.522L1318.1 462.957Z" fill="#EF9D7D"/>
<path d="M1240.47 393.346C1235.2 389.38 1215.8 371.422 1198.72 355.337C1181.63 339.253 1159.4 329.533 1136.21 326.22L1152.43 347.056L1140.27 366.888C1140.27 366.888 1198.54 429.917 1219.68 440.117C1240.82 450.316 1319.41 467.752 1319.41 467.752L1327.26 440.553C1327.26 440.553 1249.15 399.885 1240.47 393.346Z" fill="#4999E0"/>
<path d="M1175.79 378.483L1210.31 434.145C1196.75 424.076 1177.62 405.464 1162.76 390.382C1163.19 388.116 1175.79 378.483 1175.79 378.483Z" fill="#6260D8"/>
<path d="M1319.37 467.752C1319.37 467.752 1314.97 466.793 1307.99 465.136L1317.02 435.191C1323.25 438.46 1327.26 440.553 1327.26 440.553L1319.37 467.752Z" fill="#FFC85A"/>
<path d="M1107.36 319.726L1108.92 303.685L1136.21 310.703V326.22L1146.8 353.768L1132.77 356.558L1120.95 349.758L1107.36 319.726Z" fill="#754C28"/>
<path d="M1050.12 459.078C1050.12 459.078 1050.12 459.034 1050.17 458.99C1050.12 459.034 1050.12 459.034 1050.12 459.078Z" fill="#2F506B"/>
<path d="M1064.42 480.523C1068.34 463.959 1066.64 433.927 1063.81 415.097C1061.02 396.267 1076.8 330.754 1076.8 330.754L1107.35 319.726C1116.86 338.905 1132.11 347.579 1136.21 345.312C1140.31 343.046 1136.21 326.22 1136.21 326.22L1144.49 330.143C1154.69 340.517 1169.42 357.342 1174.96 375.257C1181.76 397.269 1170.17 414.051 1170.17 414.051C1170.17 414.051 1171.47 453.498 1176.09 477.385C1178.49 489.807 1184.68 511.471 1181.06 524.198C1177.66 536.229 1162.32 531.303 1141.88 528.819L1128.63 528.209C1108.58 528.993 1085.82 536.403 1067.43 532.698C1061.81 531.565 1056.31 514.696 1064.42 480.523Z" fill="#4999E0"/>
<path d="M1088.22 399.231L1077.24 440.901L1065.77 432.663C1065.77 432.663 1068.52 407.077 1070.83 404.767C1073.14 402.413 1088.22 399.231 1088.22 399.231Z" fill="#1E77C7"/>
<path d="M1065.77 432.619L1147.5 491.376C1147.5 491.376 1156.61 514.042 1156.61 515.394C1156.61 516.44 1153.04 523.85 1148.59 529.734C1146.41 529.429 1144.19 529.124 1141.88 528.819L1128.63 528.209C1108.58 528.993 1085.82 536.403 1067.43 532.698C1061.81 531.565 1056.31 514.653 1064.42 480.479C1067.25 468.493 1067.12 449.401 1065.77 432.619Z" fill="#1E77C7"/>
<path d="M1131.55 510.163L1137.95 493.12C1137.95 493.12 1152.38 490.766 1156.3 491.333C1157.7 491.551 1159.92 491.899 1161.84 492.335L1159.92 498.569C1159.92 498.569 1172.96 496.738 1174.57 502.274C1176.18 507.809 1172.82 523.545 1166.94 523.763C1164.15 523.85 1154.73 521.845 1150.07 520.711C1145.36 519.622 1131.55 510.163 1131.55 510.163Z" fill="#8A5D3B"/>
<path d="M1108.23 304.339C1108.23 304.339 1096.46 288.037 1093.49 281.455C1091.62 277.314 1092.4 260.315 1101.34 254.954C1101.34 254.954 1102.26 246.585 1114.98 244.187C1121.78 242.923 1151.42 248.067 1156.7 257.918C1159.49 263.061 1150.29 284.855 1150.29 284.855L1131.72 285.16L1108.23 304.339Z" fill="#FFB000"/>
<path d="M1104.44 291.219C1104.78 301.593 1111.02 311.226 1120.83 315.672C1124.79 317.459 1129.19 318.68 1133.68 318.462C1148.5 317.677 1153.25 281.586 1148.63 268.51C1148.63 268.51 1144.62 274.786 1132.51 273.609C1112.46 271.648 1112.19 280.366 1112.15 286.25C1112.15 286.25 1108.53 278.796 1104.78 277.794C1100.99 276.835 1095.54 284.986 1104.44 291.219Z" fill="#8A5D3B"/>
<path d="M1112.5 269.774C1112.5 269.774 1110.8 307.826 1114.5 313.536C1118.21 319.246 1100.95 322.254 1091.93 325.262C1084.34 323.169 1093.67 267.071 1093.84 266.417C1094.06 265.807 1112.5 269.774 1112.5 269.774Z" fill="#FFB000"/>
<path d="M1178.1 531.391H1087.61C1084.73 531.391 1082.38 529.037 1082.38 526.16V525.637C1082.38 522.76 1084.73 520.406 1087.61 520.406H1178.1C1180.98 520.406 1183.33 522.76 1183.33 525.637V526.16C1183.33 529.08 1181.02 531.391 1178.1 531.391Z" fill="#D0D2D3"/>
<path d="M1366.97 531.39H1176.09C1171.08 531.39 1167.03 527.337 1167.03 522.324V397.574C1167.03 392.562 1171.08 388.508 1176.09 388.508H1366.97C1371.98 388.508 1376.03 392.562 1376.03 397.574V522.368C1376.03 527.337 1371.98 531.39 1366.97 531.39Z" fill="#E6E7E8"/>
<path d="M1176.09 388.508H1182.89C1177.88 388.508 1173.83 392.562 1173.83 397.574V522.368C1173.83 527.38 1177.88 531.434 1182.89 531.434H1176.09C1171.08 531.434 1167.03 527.38 1167.03 522.368V397.574C1167.07 392.562 1171.12 388.508 1176.09 388.508Z" fill="#D0D2D3"/>
<path d="M1289.82 459.949C1289.82 450.796 1279.88 445.042 1271.94 449.663C1264.01 454.239 1264.01 465.703 1271.94 470.28C1279.88 474.857 1289.82 469.103 1289.82 459.949Z" fill="#D0D2D3"/>
<path d="M1005.32 436.76C1040.58 348.886 1076.84 330.71 1076.84 330.71C1096.28 335.679 1103.56 374.255 1088.26 399.187C1079.81 412.918 1056.75 444.519 1052.22 454.457C1052.22 454.457 1132.46 485.187 1147.54 491.333L1144.14 520.363C1144.14 520.363 1051.61 507.635 1018.61 493.948C985.526 480.349 1002.96 442.645 1005.32 436.76Z" fill="#4999E0"/>
<path d="M309.208 422.376L372.847 369.591L436.443 422.376V497.043H309.208V422.376Z" fill="#F6921E"/>
<path d="M415.696 467.098H329.958C329.304 467.098 328.781 466.575 328.781 465.921V381.621C328.781 380.967 329.304 380.444 329.958 380.444H415.696C416.35 380.444 416.873 380.967 416.873 381.621V465.921C416.873 466.575 416.35 467.098 415.696 467.098Z" fill="#E6E7E8"/>
<path d="M405.758 391.559H339.94V396.18H405.758V391.559Z" fill="#BBBDBF"/>
<path d="M405.758 400.713H339.94V405.333H405.758V400.713Z" fill="#BBBDBF"/>
<path d="M405.758 409.823H339.94V414.443H405.758V409.823Z" fill="#BBBDBF"/>
<path d="M405.758 418.933H339.94V423.553H405.758V418.933Z" fill="#BBBDBF"/>
<path d="M405.758 437.196H339.94V441.817H405.758V437.196Z" fill="#BBBDBF"/>
<path d="M405.758 428.043H339.94V432.663H405.758V428.043Z" fill="#BBBDBF"/>
<path d="M405.758 446.306H339.94V450.927H405.758V446.306Z" fill="#BBBDBF"/>
<path d="M405.758 455.416H339.94V460.037H405.758V455.416Z" fill="#BBBDBF"/>
<path d="M309.208 422.376L361.95 459.731L309.208 497.043V422.376Z" fill="#FFB000"/>
<path d="M436.442 422.376L383.7 459.731L436.442 497.043V422.376Z" fill="#FFB000"/>
<path d="M383.744 459.731H361.95V459.688L309.208 497.043H436.443L383.744 459.731Z" fill="#F6921E"/>
</svg>
