<svg width="2000" height="2000" viewBox="0 0 2000 2000" fill="none" xmlns="http://www.w3.org/2000/svg">
<path d="M1042.5 1363.84C1043.31 1371.3 1044.31 1378.74 1045.49 1386.14" stroke="#38425C" stroke-width="17" stroke-linecap="round" stroke-linejoin="round"/>
<path d="M1054.78 1429.99C1078.22 1518.76 1128.44 1600.49 1197.86 1660.67C1284.25 1735.56 1399.47 1776.3 1513.73 1772.35C1609.86 1769.03 1707.66 1732.36 1770.43 1659.48C1833.2 1586.6 1853.83 1475.1 1807.31 1390.91C1759.7 1304.75 1658.07 1264.65 1561.91 1243.59C1465.75 1222.53 1363.9 1212.72 1280.11 1161.05C1146.36 1078.58 1092.56 888.32 1163.31 748.02C1234.06 607.72 1419.04 537.88 1564.86 596.39C1628.09 621.76 1688.32 683.96 1671.31 749.93C1655.05 813.01 1579.05 839.66 1513.92 840C1405.93 840.56 1308.18 784.61 1223.21 717.96C922.94 482.46 848.05 808.04 601.75 684.9" stroke="#38425C" stroke-width="17" stroke-linecap="round" stroke-linejoin="round" stroke-dasharray="44.84 44.84"/>
<path d="M582 674.27C575.72 670.65 569.32 666.73 562.81 662.52" stroke="#38425C" stroke-width="17" stroke-linecap="round" stroke-linejoin="round"/>
<path d="M564.86 729.23L341.04 535.92L596.37 596.75L573.62 728.78C573.2 731.79 567.17 731.22 564.86 729.23Z" fill="#38425C"/>
<path d="M700.7 467.35L196.96 363.07C194.9 362.64 192.92 362.8 191.13 363.38C190.05 363.93 188.98 364.48 187.91 365.05C184.02 367.94 182.03 373.23 184.08 378.4L257.58 516.73L398.47 779.48C402.69 790.13 417.13 791.68 423.51 782.17L534.2 661.14L569.16 620.05L596.37 596.75L620.11 574.31L707.59 491.62C715.95 483.72 711.96 469.68 700.7 467.35Z" fill="#FFBB00"/>
<path d="M287.6 432.36L620.31 573.63L573.78 728.77C573.15 731.15 569.93 731.54 568.75 729.37L534.53 661.44L284.98 436.92C282.66 435.01 284.78 431.32 287.6 432.36Z" fill="#C49104"/>
<path d="M250.7 897.5L175.32 833.47" stroke="#38425C" stroke-width="19" stroke-miterlimit="10" stroke-linecap="round" stroke-linejoin="round"/>
<path d="M245.02 827.8L180.99 903.18" stroke="#38425C" stroke-width="19" stroke-miterlimit="10" stroke-linecap="round" stroke-linejoin="round"/>
<path d="M1256.69 398.95L1247.99 316.78" stroke="#38425C" stroke-width="19" stroke-miterlimit="10" stroke-linecap="round" stroke-linejoin="round"/>
<path d="M1293.42 353.52L1211.26 362.21" stroke="#38425C" stroke-width="19" stroke-miterlimit="10" stroke-linecap="round" stroke-linejoin="round"/>
<path d="M871.46 518.38C860.65 509.2 859.33 492.99 868.51 482.18C877.69 471.37 893.9 470.05 904.71 479.23" stroke="#38425C" stroke-width="19" stroke-miterlimit="10" stroke-linecap="round" stroke-linejoin="round"/>
<path d="M846.62 544.6C820.63 522.52 817.45 483.55 839.53 457.56C861.61 431.57 900.58 428.39 926.57 450.47" stroke="#38425C" stroke-width="19" stroke-miterlimit="10" stroke-linecap="round" stroke-linejoin="round"/>
<path d="M294.76 1695.23C304.64 1685.05 320.9 1684.8 331.08 1694.67C341.26 1704.55 341.51 1720.81 331.64 1730.99" stroke="#38425C" stroke-width="19" stroke-miterlimit="10" stroke-linecap="round" stroke-linejoin="round"/>
<path d="M270.24 1668.71C293.98 1644.23 333.08 1643.63 357.56 1667.37C382.04 1691.11 382.64 1730.21 358.9 1754.69" stroke="#38425C" stroke-width="19" stroke-miterlimit="10" stroke-linecap="round" stroke-linejoin="round"/>
<path d="M544.405 264.53C547.693 250.439 538.935 236.351 524.844 233.063C510.753 229.776 496.665 238.534 493.378 252.624C490.09 266.715 498.848 280.803 512.939 284.091C527.03 287.378 541.117 278.62 544.405 264.53Z" stroke="#38425C" stroke-width="19" stroke-miterlimit="10" stroke-linecap="round" stroke-linejoin="round"/>
<path d="M920.642 1691.1C935.797 1682.33 940.974 1662.94 932.206 1647.78C923.439 1632.63 904.046 1627.45 888.892 1636.22C873.737 1644.99 868.56 1664.38 877.327 1679.53C886.095 1694.69 905.488 1699.86 920.642 1691.1Z" stroke="#38425C" stroke-width="19" stroke-miterlimit="10" stroke-linecap="round" stroke-linejoin="round"/>
<path d="M1380.04 933.24H355.51V1515.82H1380.04V933.24Z" fill="#FF006B"/>
<path d="M1380.04 933.22V933.23L1368.23 957.44C1356.17 982.09 1339.01 1003.84 1317.9 1021.23C1316.4 1022.47 1314.87 1023.69 1313.32 1024.88C1311.77 1026.08 1310.2 1027.26 1308.62 1028.41L1259.77 1063.86L1218.97 1093.47L892.08 1330.72C890.48 1331.87 888.84 1332.92 887.16 1333.86C870.72 1343 850.22 1341.86 834.81 1330.47L425.98 1028.23C421.34 1024.8 416.88 1021.17 412.58 1017.34C412.58 1017.33 412.58 1017.33 412.57 1017.34C403.99 1009.71 396.12 1001.32 389.05 992.29C380.8 981.75 373.65 970.36 367.74 958.25L355.52 933.23V933.22H1380.04Z" fill="#FF006B"/>
<path d="M1380.03 933.23L1369.06 959.42C1354.75 988.97 1340.86 1014.5 1314.46 1033.82L885.09 1360.32C867.3 1373.33 841.96 1371.6 824.3 1358.43L387.7 1032.81C366.02 1016.3 355.51 988.35 355.51 988.35V933.23L367.73 958.26C381.25 985.93 401.22 1009.92 425.99 1028.24L834.8 1330.48C851.8 1343.03 874.97 1343.13 892.07 1330.73L1308.6 1028.41C1333.98 1009.99 1354.44 985.62 1368.21 957.44L1380.03 933.23Z" fill="white"/>
<path d="M1380.04 933.22V1146.84C1333.69 1139.54 1284.02 1109.06 1254.01 1075.7C1253.04 1074.64 1252.09 1073.56 1251.16 1072.47C1220.93 1037.41 1196.2 983.15 1196.2 933.24L1211.26 933.23H1380.04V933.22Z" fill="#38425C"/>
<path d="M1411.43 1108.72C1521.98 1108.72 1611.6 1019.1 1611.6 908.55C1611.6 797.999 1521.98 708.38 1411.43 708.38C1300.88 708.38 1211.26 797.999 1211.26 908.55C1211.26 1019.1 1300.88 1108.72 1411.43 1108.72Z" fill="#4452E2"/>
<path d="M1427.74 789.6C1433.43 789.6 1439.23 789.92 1445.13 790.55V790.87L1445.45 790.55V972.07C1453.88 975.45 1459.68 978.92 1462.84 982.51L1459.68 1008.76H1377.46L1374.3 982.51C1378.09 977.88 1386.63 973.87 1399.92 970.49V831.97C1388.11 830.7 1378.62 828.49 1371.46 825.33V801.3C1389.16 793.5 1407.92 789.6 1427.74 789.6Z" fill="#FFF1E3"/>
</svg>
