<svg width="149" height="81" viewBox="0 0 149 81" fill="none" xmlns="http://www.w3.org/2000/svg">
<path d="M132.275 80.8355C132.275 80.8355 117.854 49.9414 68.6528 49.9414C105.394 49.9414 138.154 49.9414 138.154 49.9414L132.275 80.8355Z" fill="url(#paint0_radial_815_1919)"/>
<path d="M16.8368 0.835938C23.0117 0.835938 27.1958 0.835938 29.9036 0.835938C50.5963 0.835938 108.132 0.835938 131.355 0.835938C138.315 0.899322 150.572 2.99677 148.539 16.0943C146.552 28.8921 133.371 76.9346 132.363 80.6108C132.308 80.7578 132.279 80.8356 132.279 80.8356C132.279 80.8356 130.317 49.9415 98.8947 49.9415C67.4718 49.9415 35.4754 49.9415 31.6962 49.9415C30.2748 49.9415 28.9588 49.9357 27.7356 49.9156C16.1071 49.4834 13.3528 46.2133 10.6028 41.0792C7.64612 35.559 4.29295 26.9387 1.33625 18.5893C-1.58249 10.3609 3.97239 0.835938 16.8368 0.835938Z" fill="url(#paint1_linear_815_1919)"/>
<path d="M100.055 49.3884C68.6317 49.3884 36.6353 49.3884 32.8561 49.3884C31.4347 49.3884 30.1187 49.3826 28.8955 49.3625C17.267 48.9303 14.5127 45.6603 11.7627 40.5261C8.806 35.0059 5.45282 26.3857 2.49613 18.0362C1.01988 13.873 1.41214 9.44477 3.63915 6.05371C0.619187 9.52832 -0.207508 14.2389 1.332 18.5894C4.2887 26.9388 7.64187 35.5562 10.5986 41.0793C13.3486 46.2134 16.1028 49.4835 27.7314 49.9156C28.9546 49.9329 30.2705 49.9416 31.6919 49.9416C35.4753 49.9416 67.4718 49.9416 98.8904 49.9416C130.313 49.9416 132.275 80.8357 132.275 80.8357C132.275 80.8357 132.304 80.7579 132.359 80.6109C132.473 80.2018 132.734 79.2366 133.118 77.8335C131.878 70.5299 126.049 49.3884 100.055 49.3884Z" fill="url(#paint2_linear_815_1919)"/>
<g filter="url(#filter0_d_815_1919)">
<path d="M30.9531 32.918H24.3906C22.5859 32.918 21.6836 32.125 21.6836 30.5391V16.8398C21.6836 15.2539 22.5859 14.4609 24.3906 14.4609H30.9531C32.3568 14.4609 33.0586 15.1855 33.0586 16.6348C33.0586 18.084 32.3568 18.8086 30.9531 18.8086H27.0977V21.4609H30.4062C31.8099 21.4609 32.5117 22.1901 32.5117 23.6484C32.5117 25.1068 31.8099 25.8359 30.4062 25.8359H27.0977V28.5703H30.9531C32.3568 28.5703 33.0586 29.2949 33.0586 30.7441C33.0586 32.1934 32.3568 32.918 30.9531 32.918ZM46.982 22.6914V16.8398C46.982 15.2539 47.8844 14.4609 49.6891 14.4609C51.4937 14.4609 52.3961 15.2539 52.3961 16.8398V30.5391C52.3961 32.125 51.4937 32.918 49.6891 32.918C48.6865 32.918 47.8935 32.5716 47.3102 31.8789L41.2398 24.6602V30.5391C41.2398 32.125 40.3375 32.918 38.5328 32.918C36.7281 32.918 35.8258 32.125 35.8258 30.5391V16.8398C35.8258 15.263 36.7281 14.4701 38.5328 14.4609C39.6904 14.4518 40.5198 14.8255 41.0211 15.582L46.982 22.6914ZM68.3293 25.0156L68.8488 25.6445C69.1223 25.0247 69.259 24.1725 69.259 23.0879C69.259 21.9941 68.8488 20.9961 68.0285 20.0938C67.2173 19.1823 66.1236 18.7266 64.7473 18.7266C63.371 18.7266 62.2681 19.1823 61.4387 20.0938C60.6184 21.0052 60.2082 22.1491 60.2082 23.5254C60.2082 24.9017 60.6229 26.0365 61.4523 26.9297C62.2909 27.8229 63.3892 28.2695 64.7473 28.2695L64.091 27.5312C63.7811 27.1758 63.6262 26.7428 63.6262 26.2324C63.6262 25.722 63.9634 25.1979 64.6379 24.6602C65.3215 24.1133 65.9458 23.8398 66.5109 23.8398C67.076 23.8398 67.6822 24.2318 68.3293 25.0156ZM73.0871 30.3203C73.4243 30.7669 73.593 31.2591 73.593 31.7969C73.593 32.3346 73.2375 32.877 72.5266 33.4238C71.8156 33.9707 71.1639 34.2441 70.5715 34.2441C69.979 34.2441 69.4322 33.9388 68.9309 33.3281L68.2746 32.5352C67.1991 32.8997 66.0233 33.082 64.7473 33.082C61.8944 33.082 59.5474 32.2025 57.7062 30.4434C55.8742 28.6842 54.9582 26.3783 54.9582 23.5254C54.9582 20.6634 55.8697 18.3483 57.6926 16.5801C59.5155 14.8027 61.8716 13.9141 64.7609 13.9141C67.6503 13.9141 69.9973 14.8073 71.802 16.5938C73.6066 18.3711 74.509 20.6042 74.509 23.293C74.509 25.9727 73.8345 28.0964 72.4855 29.6641L73.0871 30.3203ZM91.618 27.9141C91.618 29.6549 90.8751 30.9492 89.3895 31.7969C87.9129 32.6354 86.2313 33.0547 84.3445 33.0547C82.4578 33.0547 80.7716 32.6354 79.2859 31.7969C77.8094 30.9492 77.0711 29.6549 77.0711 27.9141V16.8398C77.0711 15.2539 77.9734 14.4609 79.7781 14.4609C81.5828 14.4609 82.4852 15.2539 82.4852 16.8398V27.1211C82.4852 28.1602 83.1049 28.6797 84.3445 28.6797C85.5841 28.6797 86.2039 28.1602 86.2039 27.1211V16.8398C86.2039 15.2539 87.1063 14.4609 88.9109 14.4609C90.7156 14.4609 91.618 15.2539 91.618 16.8398V27.9141ZM99.7992 30.5391C99.7992 32.125 98.8969 32.918 97.0922 32.918C95.2875 32.918 94.3852 32.125 94.3852 30.5391V16.8398C94.3852 15.2539 95.2875 14.4609 97.0922 14.4609C98.8969 14.4609 99.7992 15.2539 99.7992 16.8398V30.5391ZM113.914 25.0703L116.621 28.625C117.022 29.1536 117.223 29.7188 117.223 30.3203C117.223 30.9219 116.858 31.5052 116.129 32.0703C115.4 32.6263 114.73 32.9043 114.119 32.9043C113.508 32.9043 112.93 32.5352 112.383 31.7969L107.98 25.918V30.5391C107.98 32.125 107.078 32.918 105.273 32.918C103.469 32.918 102.566 32.125 102.566 30.5391V16.8398C102.566 15.2539 103.469 14.4609 105.273 14.4609H111.398C112.911 14.4609 114.169 15.0443 115.172 16.2109C116.174 17.3685 116.676 18.6126 116.676 19.9434C116.676 22.3223 115.755 24.0312 113.914 25.0703ZM107.98 18.1797V22.3906H109.539C111.07 22.3906 111.836 21.6888 111.836 20.2852C111.836 18.8815 111.07 18.1797 109.539 18.1797H107.98ZM129.068 32.918H122.505C120.701 32.918 119.798 32.125 119.798 30.5391V16.8398C119.798 15.2539 120.701 14.4609 122.505 14.4609H129.068C130.472 14.4609 131.173 15.1855 131.173 16.6348C131.173 18.084 130.472 18.8086 129.068 18.8086H125.213V21.4609H128.521C129.925 21.4609 130.627 22.1901 130.627 23.6484C130.627 25.1068 129.925 25.8359 128.521 25.8359H125.213V28.5703H129.068C130.472 28.5703 131.173 29.2949 131.173 30.7441C131.173 32.1934 130.472 32.918 129.068 32.918Z" fill="white"/>
</g>
<defs>
<filter id="filter0_d_815_1919" x="21.6836" y="13.9141" width="109.49" height="24.3301" filterUnits="userSpaceOnUse" color-interpolation-filters="sRGB">
<feFlood flood-opacity="0" result="BackgroundImageFix"/>
<feColorMatrix in="SourceAlpha" type="matrix" values="0 0 0 0 0 0 0 0 0 0 0 0 0 0 0 0 0 0 127 0" result="hardAlpha"/>
<feOffset dy="4"/>
<feComposite in2="hardAlpha" operator="out"/>
<feColorMatrix type="matrix" values="0 0 0 0 0 0 0 0 0 0 0 0 0 0 0 0 0 0 0.2 0"/>
<feBlend mode="normal" in2="BackgroundImageFix" result="effect1_dropShadow_815_1919"/>
<feBlend mode="normal" in="SourceGraphic" in2="effect1_dropShadow_815_1919" result="shape"/>
</filter>
<radialGradient id="paint0_radial_815_1919" cx="0" cy="0" r="1" gradientUnits="userSpaceOnUse" gradientTransform="translate(106.093 61.158) scale(44.1461 30.1552)">
<stop stop-color="#D35B04"/>
<stop offset="1" stop-color="#602800"/>
</radialGradient>
<linearGradient id="paint1_linear_815_1919" x1="-0.0267458" y1="49.2869" x2="165.192" y2="8.77949" gradientUnits="userSpaceOnUse">
<stop stop-color="#CF6300"/>
<stop offset="0.097" stop-color="#C65F00"/>
<stop offset="0.2424" stop-color="#DB7905"/>
<stop offset="0.8424" stop-color="#DC5E04"/>
<stop offset="1" stop-color="#F1C8A3"/>
</linearGradient>
<linearGradient id="paint2_linear_815_1919" x1="-54.0042" y1="16.2923" x2="117.023" y2="97.8966" gradientUnits="userSpaceOnUse">
<stop stop-color="#BB6806"/>
<stop offset="0.0909" stop-color="#E05608"/>
<stop offset="0.303" stop-color="#F77803"/>
<stop offset="0.4121" stop-color="#D76700"/>
<stop offset="0.632" stop-color="#F77803"/>
<stop offset="1" stop-color="#FFD6A7"/>
</linearGradient>
</defs>
</svg>
