<svg width="420" height="400" viewBox="0 0 420 400" fill="none" xmlns="http://www.w3.org/2000/svg">
<g clip-path="url(#clip0_311_52)">
<mask id="mask0_311_52" style="mask-type:luminance" maskUnits="userSpaceOnUse" x="0" y="0" width="420" height="400">
<path d="M390 0H30C13.4315 0 0 13.4315 0 30V370C0 386.569 13.4315 400 30 400H390C406.569 400 420 386.569 420 370V30C420 13.4315 406.569 0 390 0Z" fill="white"/>
</mask>
<g mask="url(#mask0_311_52)">
<path d="M390 0H30C13.4315 0 0 13.4315 0 30V370C0 386.569 13.4315 400 30 400H390C406.569 400 420 386.569 420 370V30C420 13.4315 406.569 0 390 0Z" fill="white"/>
<path d="M90.2822 242.305C63.2342 245.505 47.4674 249.487 20.915 254.216L31.9358 289.345L22.0238 325.691C48.2066 320.929 63.6038 316.905 90.2822 313.663V242.305Z" fill="url(#paint0_linear_311_52)"/>
<path d="M326.76 242.305C353.808 245.505 369.574 253.645 396.127 258.374L385.106 289.345L395.026 325.691C368.844 320.929 353.446 316.905 326.768 313.663V242.305H326.76Z" fill="url(#paint1_linear_311_52)"/>
<path d="M42.999 239.953V300.072L90.4338 313.663V252.629L42.999 239.953Z" fill="url(#paint2_linear_311_52)"/>
<path d="M374.337 239.953V300.072L326.902 313.663V252.629L374.337 239.953Z" fill="url(#paint3_linear_311_52)"/>
<path d="M42.999 239.953V300.072L90.4338 313.663V252.629L42.999 239.953Z" fill="url(#paint4_linear_311_52)"/>
<path d="M374.337 239.953V300.072L326.902 313.663V252.629L374.337 239.953Z" fill="url(#paint5_linear_311_52)"/>
<path d="M372.556 200.49C372.556 212.611 371.221 224.438 368.684 235.803C363.459 259.416 353.043 281.087 338.713 299.584C309.094 337.88 262.676 362.534 210.495 362.534C158.188 362.534 111.661 337.754 82.0342 299.265C67.7458 280.726 57.397 259.037 52.2058 235.391C49.7194 224.161 48.4258 212.476 48.4258 200.49C48.4258 110.979 120.993 38.4199 210.495 38.4199C299.997 38.4283 372.556 110.979 372.556 200.49Z" fill="url(#paint6_linear_311_52)"/>
<path d="M368.885 200.49C368.885 287.968 297.981 358.889 210.487 358.889C127.705 358.889 59.7487 295.36 52.7011 214.417C52.2895 209.839 52.0879 205.186 52.0879 200.499C52.0879 113.004 123.009 42.083 210.487 42.083C266.708 42.083 316.075 71.3486 344.173 115.491C359.822 140.044 368.885 169.217 368.885 200.49Z" fill="url(#paint7_linear_311_52)"/>
<path d="M368.886 200.49C368.886 287.967 297.981 358.889 210.487 358.889C127.705 358.889 59.7488 295.359 52.7012 214.417C53.4824 214.568 54.2552 214.736 55.0532 214.921C83.4536 221.633 103.824 226.597 130.754 211.544C162.993 193.509 185.841 162.883 215.745 141.639C253.856 114.575 302.366 104.822 344.164 115.482C359.822 140.043 368.886 169.217 368.886 200.49Z" fill="url(#paint8_linear_311_52)"/>
<path d="M314.225 304.225C371.52 246.93 371.52 154.037 314.225 96.7417C256.93 39.4468 164.037 39.4468 106.742 96.7417C49.4467 154.037 49.4467 246.93 106.742 304.225C164.037 361.52 256.93 361.52 314.225 304.225Z" fill="#1D1F1B"/>
<path d="M306.153 296.153C358.99 243.316 358.99 157.651 306.153 104.814C253.316 51.9767 167.651 51.9767 114.814 104.814C61.9772 157.651 61.9772 243.316 114.814 296.153C167.651 348.99 253.316 348.99 306.153 296.153Z" fill="#A6AAAB"/>
<path d="M210.487 327.734C280.766 327.734 337.738 270.761 337.738 200.482C337.738 130.203 280.766 73.2305 210.487 73.2305C140.208 73.2305 83.2354 130.203 83.2354 200.482C83.2354 270.761 140.208 327.734 210.487 327.734Z" fill="#013A59"/>
<path d="M331.883 162.254C302.408 189.15 258.963 206.127 210.487 206.127C162.01 206.127 118.549 189.125 89.0898 162.228C105.327 110.644 153.543 73.2305 210.487 73.2305C267.43 73.2305 315.663 110.644 331.883 162.254Z" fill="#003859"/>
<path d="M210.284 322.038C143.151 322.038 88.7274 267.614 88.7274 200.481C88.7274 133.349 143.151 78.9251 210.284 78.9251C277.417 78.9251 331.84 133.349 331.84 200.481C331.84 267.614 277.417 322.038 210.284 322.038ZM331.681 162.253C315.46 110.643 267.227 73.2383 210.284 73.2383C153.34 73.2383 105.124 110.643 88.887 162.236C85.065 174.324 83.0322 187.167 83.0322 200.498C83.0322 270.764 140.009 327.725 210.284 327.725C280.558 327.725 337.535 270.764 337.535 200.49C337.535 187.167 335.503 174.315 331.681 162.253Z" fill="url(#paint9_linear_311_52)"/>
<path d="M316.957 223.54C320.619 220.482 325.407 208.302 325.407 208.302C325.407 208.302 321.417 210.52 318.032 213.477C316.268 215.022 314.832 217.534 313.79 219.777C314.848 214.98 315.52 210.075 315.806 205.085C316.369 205.22 318.393 205.488 320.376 203.01C323.374 199.247 325.558 186.202 325.558 186.202C325.558 186.202 322.106 189.234 319.393 192.863C317.326 195.618 316.335 200.264 315.915 202.952C315.924 202.784 315.932 202.616 315.94 202.439C316.125 196.542 315.73 190.645 314.806 184.841C315.453 184.849 317.419 184.623 318.78 181.817C320.913 177.441 320.073 163.908 320.073 163.908C320.073 163.908 317.402 167.688 315.562 171.897C314.218 174.963 314.21 179.532 314.361 182.338C313.252 176.416 311.589 170.612 309.388 165.034C309.783 164.984 311.992 164.564 312.723 161.12C313.765 156.256 309.489 142.606 309.489 142.606C309.489 142.606 307.843 147.033 307.095 151.703C306.474 155.592 308.002 161.086 308.826 163.64C306.742 158.591 304.213 153.753 301.273 149.192C301.063 147.293 300.123 142.908 295.864 138.675C290.808 133.643 285.684 130.787 285.684 130.787C285.684 130.787 290.219 139.7 294.721 144.84C297.266 147.747 299.594 149.234 300.678 149.83C303.618 154.416 306.146 159.28 308.221 164.354C307.003 162.035 304.063 157.079 300.543 155.626C296.377 153.912 291.915 153.954 291.915 153.954C291.915 153.954 299.779 162.674 303.727 165.093C306.39 166.722 308.271 165.882 308.725 165.63C310.783 170.906 312.37 176.374 313.446 181.968C312.58 179.331 311.026 175.752 308.624 174.148C305.02 171.737 300.728 170.931 300.728 170.931C300.728 170.931 306.204 180.574 309.471 183.64C311.479 185.53 313.328 185.345 314.008 185.186C314.89 190.805 315.26 196.509 315.1 202.212C314.84 199.491 314.118 195.56 312.076 193.485C309.103 190.469 305.13 188.848 305.13 188.848C305.13 188.848 308.313 199.121 310.842 202.733C312.421 204.984 314.286 205.169 314.958 205.152C314.596 211.259 313.639 217.24 312.127 223.044C312.513 220.734 313.152 215.207 311.169 212.133C308.893 208.596 305.355 206.219 305.355 206.219C305.355 206.219 306.364 216.828 308.112 220.869C309.338 223.708 311.455 224.069 311.841 224.111C308.725 235.459 303.45 246.077 296.158 255.502C295.402 256.476 294.604 257.383 293.815 258.316C294.949 256.417 297.704 251.302 297.015 247.539C296.242 243.33 293.915 239.71 293.915 239.71C293.915 239.71 290.934 250 291.06 254.494C291.144 257.518 292.797 258.736 293.234 259.005C289.152 263.717 284.684 267.841 279.854 271.327C279.988 271.588 280.123 271.848 280.249 272.117C286.339 267.724 291.908 262.373 296.805 256.04C299.938 251.991 302.694 247.715 305.079 243.263C305.818 243.675 307.388 244.204 309.665 242.961C313.806 240.693 320.803 229.714 320.803 229.714C320.803 229.714 316.478 231.066 312.622 233.276C310.758 234.342 309.002 236.3 307.616 238.173C309.598 233.838 311.236 229.361 312.53 224.758C313.37 225.035 314.991 225.178 316.957 223.54Z" fill="url(#paint10_linear_311_52)"/>
<path d="M303.769 242.532C303.769 242.532 307.02 234.972 305.298 230.579C303.752 226.639 300.778 223.59 300.778 223.59C300.778 223.59 299.72 234.207 300.669 238.55C301.4 241.919 303.769 242.532 303.769 242.532Z" fill="url(#paint11_linear_311_52)"/>
<path d="M294.109 259.718C294.109 259.718 295.587 261.86 299.023 260.76C303.458 259.349 312.278 249.907 312.278 249.907C312.278 249.907 307.826 250.361 303.66 251.764C299.023 253.334 294.109 259.718 294.109 259.718Z" fill="url(#paint12_linear_311_52)"/>
<path d="M102.211 223.54C98.5486 220.482 93.7606 208.302 93.7606 208.302C93.7606 208.302 97.7506 210.52 101.136 213.477C102.9 215.022 104.336 217.534 105.378 219.777C104.328 214.98 103.647 210.075 103.362 205.085C102.799 205.22 100.774 205.488 98.7922 203.01C95.7934 199.247 93.6094 186.202 93.6094 186.202C93.6094 186.202 97.0618 189.234 99.775 192.863C101.841 195.618 102.832 200.264 103.252 202.952C103.244 202.784 103.236 202.616 103.227 202.439C103.042 196.542 103.437 190.645 104.361 184.841C103.714 184.849 101.749 184.623 100.388 181.817C98.2546 177.441 99.0946 163.908 99.0946 163.908C99.0946 163.908 101.766 167.688 103.605 171.897C104.949 174.963 104.958 179.532 104.806 182.338C105.915 176.416 107.578 170.612 109.779 165.034C109.384 164.984 107.175 164.564 106.444 161.12C105.403 156.256 109.678 142.606 109.678 142.606C109.678 142.606 111.325 147.033 112.072 151.703C112.694 155.592 111.165 161.086 110.342 163.64C112.425 158.591 114.954 153.753 117.894 149.192C118.104 147.293 119.044 142.908 123.303 138.675C128.36 133.643 133.484 130.787 133.484 130.787C133.484 130.787 128.948 139.7 124.446 144.84C121.9 147.747 119.574 149.234 118.49 149.83C115.55 154.416 113.022 159.28 110.947 164.354C112.165 162.035 115.105 157.079 118.624 155.626C122.791 153.912 127.251 153.954 127.251 153.954C127.251 153.954 119.389 162.674 115.441 165.093C112.778 166.722 110.896 165.882 110.443 165.63C108.385 170.906 106.797 176.374 105.722 181.968C106.587 179.331 108.141 175.752 110.544 174.148C114.147 171.737 118.44 170.931 118.44 170.931C118.44 170.931 112.963 180.574 109.695 183.64C107.688 185.53 105.84 185.345 105.151 185.186C104.269 190.805 103.899 196.509 104.059 202.212C104.319 199.491 105.042 195.56 107.083 193.485C110.056 190.469 114.03 188.848 114.03 188.848C114.03 188.848 110.846 199.121 108.318 202.733C106.738 204.984 104.874 205.169 104.202 205.152C104.563 211.259 105.52 217.24 107.032 223.044C106.646 220.734 106.008 215.207 107.99 212.133C110.266 208.596 113.803 206.219 113.803 206.219C113.803 206.219 112.795 216.828 111.048 220.869C109.821 223.708 107.704 224.069 107.318 224.111C110.434 235.459 115.71 246.077 123.001 255.502C123.757 256.476 124.555 257.383 125.344 258.316C124.21 256.417 121.455 251.302 122.144 247.539C122.917 243.33 125.244 239.71 125.244 239.71C125.244 239.71 128.226 250 128.1 254.494C128.016 257.518 126.361 258.736 125.924 259.005C130.006 263.717 134.475 267.841 139.305 271.327C139.171 271.588 139.036 271.848 138.91 272.117C132.82 267.724 127.251 262.373 122.354 256.04C119.221 251.991 116.466 247.715 114.08 243.263C113.341 243.675 111.77 244.204 109.494 242.961C105.352 240.693 98.3554 229.714 98.3554 229.714C98.3554 229.714 102.681 231.066 106.537 233.276C108.402 234.342 110.157 236.3 111.543 238.173C109.561 233.838 107.923 229.361 106.629 224.758C105.798 225.035 104.176 225.178 102.211 223.54Z" fill="url(#paint13_linear_311_52)"/>
<path d="M115.399 242.532C115.399 242.532 112.148 234.972 113.87 230.579C115.415 226.639 118.389 223.59 118.389 223.59C118.389 223.59 119.447 234.207 118.498 238.55C117.767 241.919 115.399 242.532 115.399 242.532Z" fill="url(#paint14_linear_311_52)"/>
<path d="M125.059 259.718C125.059 259.718 123.58 261.86 120.145 260.76C115.71 259.349 106.89 249.907 106.89 249.907C106.89 249.907 111.342 250.361 115.508 251.764C120.145 253.334 125.059 259.718 125.059 259.718Z" fill="url(#paint15_linear_311_52)"/>
<path d="M208.672 230.411C155.769 230.411 103.572 233.36 52.2061 239.105C57.3973 262.76 67.7377 284.448 82.0345 302.979C123.74 299.123 165.984 297.158 208.681 297.158C252.537 297.158 295.915 299.232 338.713 303.29C353.043 284.793 363.459 263.121 368.684 239.508C316.184 233.502 262.777 230.411 208.672 230.411Z" fill="#A6AAAB"/>
<path d="M374.337 300.19V233.191C320.006 226.765 264.726 223.447 208.672 223.447C152.619 223.447 97.3306 226.757 43.0078 233.191V300.19C97.3054 293.596 152.594 290.194 208.672 290.194C264.751 290.194 320.04 293.596 374.337 300.19Z" fill="url(#paint16_linear_311_52)"/>
<path d="M212.645 104.948L208.731 95.2129L204.825 104.948L194.359 105.654L202.406 112.382L199.852 122.555L208.731 116.977L217.618 122.555L215.056 112.382L223.112 105.654L212.645 104.948Z" fill="url(#paint17_linear_311_52)"/>
<path d="M250.109 110.803L242.919 110.316L240.239 103.63L237.551 110.316L230.361 110.803L235.897 115.423L234.133 122.412L240.239 118.582L246.338 122.412L244.582 115.423L250.109 110.803Z" fill="url(#paint18_linear_311_52)"/>
<path d="M179.911 110.316L177.231 103.63L174.543 110.316L167.361 110.803L172.888 115.423L171.124 122.412L177.231 118.582L183.329 122.412L181.574 115.423L187.101 110.803L179.911 110.316Z" fill="url(#paint19_linear_311_52)"/>
<path d="M208.731 315.183L199.852 320.761L202.406 310.589L194.359 303.86L204.825 303.155L208.731 293.419L212.645 303.155L223.112 303.86L215.056 310.589L217.618 320.761L208.731 315.183Z" fill="url(#paint20_linear_311_52)"/>
<path d="M240.239 309.085L234.133 312.916L235.897 305.935L230.369 301.315L237.551 300.828L240.239 294.142L242.919 300.828L250.109 301.315L244.582 305.935L246.338 312.916L240.239 309.085Z" fill="url(#paint21_linear_311_52)"/>
<path d="M177.231 309.085L171.133 312.916L172.888 305.935L167.361 301.315L174.543 300.828L177.231 294.142L179.911 300.828L187.101 301.315L181.574 305.935L183.329 312.916L177.231 309.085Z" fill="url(#paint22_linear_311_52)"/>
<path d="M152.051 143.182V181H141.784V152.636H141.562L133.29 157.585V148.869L142.597 143.182H152.051ZM161.515 181L176.362 151.602V151.381H158.93V143.182H186.998V151.381L172.077 181H161.515ZM191.554 181V173.614L205.662 161.943C206.598 161.168 207.398 160.441 208.063 159.764C208.74 159.075 209.257 158.367 209.614 157.641C209.983 156.914 210.168 156.108 210.168 155.222C210.168 154.249 209.959 153.418 209.54 152.729C209.134 152.039 208.568 151.51 207.841 151.141C207.115 150.759 206.278 150.568 205.33 150.568C204.382 150.568 203.545 150.759 202.819 151.141C202.105 151.522 201.551 152.082 201.157 152.821C200.763 153.56 200.566 154.458 200.566 155.517H190.816C190.816 152.858 191.413 150.568 192.607 148.648C193.801 146.727 195.488 145.25 197.667 144.216C199.846 143.182 202.4 142.665 205.33 142.665C208.358 142.665 210.98 143.151 213.196 144.124C215.425 145.084 217.142 146.438 218.348 148.186C219.567 149.934 220.176 151.984 220.176 154.335C220.176 155.788 219.875 157.234 219.272 158.675C218.668 160.103 217.585 161.685 216.022 163.42C214.458 165.156 212.236 167.224 209.355 169.625L205.81 172.58V172.801H220.583V181H191.554ZM240.314 181.517C237.408 181.517 234.829 181.006 232.576 179.984C230.336 178.95 228.569 177.528 227.277 175.719C225.996 173.909 225.344 171.829 225.319 169.477H235.291C235.328 170.782 235.833 171.822 236.805 172.598C237.79 173.374 238.959 173.761 240.314 173.761C241.36 173.761 242.283 173.54 243.083 173.097C243.884 172.641 244.511 172.001 244.967 171.176C245.422 170.351 245.644 169.391 245.632 168.295C245.644 167.188 245.422 166.227 244.967 165.415C244.511 164.59 243.884 163.956 243.083 163.513C242.283 163.057 241.36 162.83 240.314 162.83C239.23 162.83 238.227 163.094 237.304 163.624C236.393 164.141 235.722 164.861 235.291 165.784L226.279 164.011L227.757 143.182H253.166V151.381H236.177L235.439 159.727H235.66C236.251 158.582 237.273 157.634 238.725 156.884C240.178 156.12 241.865 155.739 243.785 155.739C246.038 155.739 248.045 156.262 249.805 157.308C251.578 158.355 252.975 159.801 253.997 161.648C255.031 163.482 255.542 165.599 255.529 168C255.542 170.634 254.914 172.973 253.646 175.017C252.39 177.048 250.624 178.643 248.346 179.8C246.069 180.945 243.391 181.517 240.314 181.517ZM271.332 175.83V148.5H279.604V175.83H271.332ZM261.803 166.301V158.028H289.133V166.301H261.803Z" fill="#FDC403"/>
<path d="M160.24 201.068C160.16 200.324 159.825 199.744 159.234 199.33C158.649 198.915 157.887 198.708 156.95 198.708C156.291 198.708 155.725 198.807 155.254 199.006C154.782 199.205 154.421 199.475 154.171 199.816C153.921 200.156 153.794 200.546 153.788 200.983C153.788 201.347 153.87 201.662 154.035 201.929C154.206 202.196 154.436 202.423 154.725 202.611C155.015 202.793 155.336 202.946 155.688 203.071C156.041 203.196 156.396 203.301 156.754 203.387L158.39 203.796C159.049 203.949 159.683 204.156 160.291 204.418C160.904 204.679 161.453 205.009 161.936 205.406C162.424 205.804 162.811 206.284 163.095 206.847C163.379 207.409 163.521 208.068 163.521 208.824C163.521 209.847 163.259 210.747 162.737 211.526C162.214 212.298 161.458 212.904 160.47 213.341C159.487 213.773 158.296 213.989 156.899 213.989C155.541 213.989 154.362 213.779 153.362 213.358C152.367 212.938 151.589 212.324 151.027 211.517C150.47 210.71 150.169 209.727 150.123 208.568H153.234C153.279 209.176 153.467 209.682 153.796 210.085C154.126 210.489 154.555 210.79 155.083 210.989C155.617 211.188 156.214 211.287 156.873 211.287C157.561 211.287 158.163 211.185 158.68 210.98C159.203 210.77 159.612 210.48 159.907 210.111C160.203 209.736 160.353 209.298 160.359 208.798C160.353 208.344 160.22 207.969 159.958 207.673C159.697 207.372 159.331 207.122 158.859 206.923C158.393 206.719 157.848 206.537 157.223 206.378L155.237 205.867C153.799 205.497 152.663 204.938 151.828 204.188C150.998 203.432 150.583 202.429 150.583 201.179C150.583 200.151 150.862 199.25 151.419 198.477C151.981 197.705 152.745 197.105 153.711 196.679C154.677 196.247 155.771 196.031 156.992 196.031C158.231 196.031 159.316 196.247 160.248 196.679C161.186 197.105 161.921 197.699 162.456 198.46C162.99 199.216 163.265 200.085 163.282 201.068H160.24ZM168.3 213.725H164.925L171.07 196.27H174.973L181.127 213.725H177.752L173.09 199.85H172.953L168.3 213.725ZM168.411 206.881H177.615V209.421H168.411V206.881ZM180.549 198.921V196.27H194.475V198.921H189.081V213.725H185.944V198.921H180.549ZM200.322 196.27V213.725H197.16V196.27H200.322ZM213.232 201.068C213.152 200.324 212.817 199.744 212.226 199.33C211.641 198.915 210.88 198.708 209.942 198.708C209.283 198.708 208.718 198.807 208.246 199.006C207.774 199.205 207.414 199.475 207.164 199.816C206.914 200.156 206.786 200.546 206.78 200.983C206.78 201.347 206.862 201.662 207.027 201.929C207.198 202.196 207.428 202.423 207.718 202.611C208.007 202.793 208.328 202.946 208.681 203.071C209.033 203.196 209.388 203.301 209.746 203.387L211.382 203.796C212.041 203.949 212.675 204.156 213.283 204.418C213.897 204.679 214.445 205.009 214.928 205.406C215.416 205.804 215.803 206.284 216.087 206.847C216.371 207.409 216.513 208.068 216.513 208.824C216.513 209.847 216.252 210.747 215.729 211.526C215.206 212.298 214.451 212.904 213.462 213.341C212.479 213.773 211.289 213.989 209.891 213.989C208.533 213.989 207.354 213.779 206.354 213.358C205.36 212.938 204.581 212.324 204.019 211.517C203.462 210.71 203.161 209.727 203.115 208.568H206.226C206.272 209.176 206.459 209.682 206.789 210.085C207.118 210.489 207.547 210.79 208.076 210.989C208.61 211.188 209.206 211.287 209.865 211.287C210.553 211.287 211.155 211.185 211.672 210.98C212.195 210.77 212.604 210.48 212.899 210.111C213.195 209.736 213.345 209.298 213.351 208.798C213.345 208.344 213.212 207.969 212.951 207.673C212.689 207.372 212.323 207.122 211.851 206.923C211.385 206.719 210.84 206.537 210.215 206.378L208.229 205.867C206.791 205.497 205.655 204.938 204.82 204.188C203.99 203.432 203.576 202.429 203.576 201.179C203.576 200.151 203.854 199.25 204.411 198.477C204.973 197.705 205.737 197.105 206.703 196.679C207.669 196.247 208.763 196.031 209.985 196.031C211.223 196.031 212.309 196.247 213.24 196.679C214.178 197.105 214.914 197.699 215.448 198.46C215.982 199.216 216.257 200.085 216.274 201.068H213.232ZM219.332 213.725V196.27H230.514V198.921H222.494V203.659H229.747V206.31H222.494V213.725H219.332ZM236.556 196.27V213.725H233.394V196.27H236.556ZM239.98 213.725V196.27H251.333V198.921H243.142V203.659H250.745V206.31H243.142V211.074H251.401V213.725H239.98ZM260.473 213.725H254.559V196.27H260.593C262.326 196.27 263.814 196.619 265.059 197.318C266.309 198.012 267.269 199.009 267.939 200.31C268.61 201.611 268.945 203.168 268.945 204.98C268.945 206.798 268.607 208.361 267.931 209.668C267.26 210.975 266.291 211.977 265.024 212.676C263.763 213.375 262.246 213.725 260.473 213.725ZM257.72 210.989H260.32C261.536 210.989 262.55 210.767 263.362 210.324C264.175 209.875 264.786 209.208 265.195 208.321C265.604 207.429 265.809 206.316 265.809 204.98C265.809 203.645 265.604 202.537 265.195 201.656C264.786 200.77 264.181 200.108 263.38 199.671C262.584 199.227 261.595 199.006 260.414 199.006H257.72V210.989Z" fill="white"/>
<path d="M144.179 254.545H139.513C139.428 253.941 139.254 253.405 138.991 252.936C138.728 252.46 138.391 252.056 137.979 251.722C137.567 251.388 137.091 251.132 136.551 250.955C136.019 250.777 135.44 250.688 134.815 250.688C133.686 250.688 132.702 250.969 131.864 251.53C131.026 252.084 130.376 252.894 129.914 253.959C129.453 255.017 129.222 256.303 129.222 257.816C129.222 259.371 129.453 260.678 129.914 261.736C130.383 262.794 131.036 263.593 131.875 264.133C132.713 264.673 133.682 264.943 134.783 264.943C135.401 264.943 135.973 264.861 136.498 264.698C137.031 264.534 137.503 264.296 137.915 263.984C138.327 263.664 138.668 263.277 138.938 262.823C139.215 262.368 139.407 261.85 139.513 261.267L144.179 261.289C144.059 262.29 143.757 263.256 143.274 264.186C142.798 265.11 142.155 265.937 141.345 266.669C140.543 267.393 139.584 267.968 138.469 268.394C137.361 268.813 136.108 269.023 134.708 269.023C132.762 269.023 131.022 268.583 129.488 267.702C127.961 266.821 126.754 265.546 125.866 263.877C124.985 262.208 124.545 260.188 124.545 257.816C124.545 255.436 124.992 253.412 125.887 251.743C126.782 250.074 127.997 248.803 129.531 247.929C131.065 247.048 132.791 246.608 134.708 246.608C135.973 246.608 137.144 246.786 138.224 247.141C139.311 247.496 140.273 248.014 141.111 248.696C141.949 249.371 142.631 250.198 143.157 251.178C143.689 252.159 144.03 253.281 144.179 254.545ZM163.964 246.906H168.577V261.075C168.577 262.666 168.197 264.058 167.437 265.252C166.684 266.445 165.629 267.375 164.273 268.043C162.916 268.703 161.336 269.034 159.532 269.034C157.721 269.034 156.137 268.703 154.78 268.043C153.424 267.375 152.369 266.445 151.616 265.252C150.864 264.058 150.487 262.666 150.487 261.075V246.906H155.1V260.681C155.1 261.512 155.281 262.251 155.643 262.897C156.013 263.544 156.531 264.051 157.199 264.421C157.866 264.79 158.644 264.975 159.532 264.975C160.427 264.975 161.204 264.79 161.865 264.421C162.533 264.051 163.047 263.544 163.41 262.897C163.779 262.251 163.964 261.512 163.964 260.681V246.906ZM187.208 253.181C187.123 252.322 186.757 251.654 186.111 251.178C185.464 250.703 184.587 250.465 183.479 250.465C182.726 250.465 182.091 250.571 181.572 250.784C181.054 250.99 180.656 251.278 180.379 251.647C180.109 252.017 179.974 252.436 179.974 252.904C179.96 253.295 180.042 253.636 180.219 253.927C180.404 254.218 180.656 254.47 180.976 254.683C181.295 254.889 181.665 255.07 182.084 255.227C182.503 255.376 182.95 255.504 183.426 255.61L185.386 256.079C186.338 256.292 187.211 256.576 188.007 256.931C188.802 257.286 189.491 257.723 190.074 258.242C190.656 258.76 191.107 259.371 191.427 260.074C191.753 260.777 191.92 261.583 191.927 262.492C191.92 263.828 191.579 264.985 190.905 265.965C190.237 266.938 189.271 267.695 188.007 268.235C186.75 268.767 185.233 269.034 183.458 269.034C181.696 269.034 180.162 268.764 178.856 268.224C177.556 267.684 176.54 266.885 175.809 265.827C175.084 264.762 174.704 263.444 174.669 261.874H179.133C179.182 262.606 179.392 263.217 179.761 263.707C180.138 264.19 180.638 264.556 181.263 264.804C181.895 265.046 182.609 265.166 183.405 265.166C184.186 265.166 184.864 265.053 185.439 264.825C186.022 264.598 186.473 264.282 186.792 263.877C187.112 263.472 187.272 263.007 187.272 262.482C187.272 261.992 187.126 261.58 186.835 261.246C186.551 260.912 186.132 260.628 185.578 260.394C185.031 260.159 184.36 259.946 183.564 259.754L181.189 259.158C179.349 258.71 177.897 258.011 176.831 257.059C175.766 256.107 175.237 254.825 175.244 253.213C175.237 251.892 175.589 250.738 176.299 249.751C177.016 248.764 178 247.993 179.25 247.439C180.5 246.885 181.92 246.608 183.511 246.608C185.13 246.608 186.544 246.885 187.751 247.439C188.966 247.993 189.91 248.764 190.585 249.751C191.26 250.738 191.608 251.882 191.629 253.181H187.208ZM197.199 250.71V246.906H215.118V250.71H208.438V268.725H203.879V250.71H197.199ZM240.123 257.816C240.123 260.195 239.672 262.219 238.77 263.888C237.875 265.557 236.653 266.832 235.105 267.713C233.564 268.586 231.831 269.023 229.906 269.023C227.967 269.023 226.227 268.583 224.686 267.702C223.145 266.821 221.927 265.546 221.032 263.877C220.137 262.208 219.69 260.188 219.69 257.816C219.69 255.436 220.137 253.412 221.032 251.743C221.927 250.074 223.145 248.803 224.686 247.929C226.227 247.048 227.967 246.608 229.906 246.608C231.831 246.608 233.564 247.048 235.105 247.929C236.653 248.803 237.875 250.074 238.77 251.743C239.672 253.412 240.123 255.436 240.123 257.816ZM235.446 257.816C235.446 256.274 235.215 254.975 234.753 253.916C234.299 252.858 233.656 252.056 232.825 251.509C231.994 250.962 231.021 250.688 229.906 250.688C228.791 250.688 227.818 250.962 226.987 251.509C226.156 252.056 225.51 252.858 225.048 253.916C224.594 254.975 224.366 256.274 224.366 257.816C224.366 259.357 224.594 260.656 225.048 261.715C225.51 262.773 226.156 263.575 226.987 264.122C227.818 264.669 228.791 264.943 229.906 264.943C231.021 264.943 231.994 264.669 232.825 264.122C233.656 263.575 234.299 262.773 234.753 261.715C235.215 260.656 235.446 259.357 235.446 257.816ZM246.54 246.906H252.229L258.237 261.566H258.493L264.502 246.906H270.19V268.725H265.716V254.524H265.535L259.889 268.618H256.842L251.195 254.47H251.014V268.725H246.54V246.906ZM276.991 268.725V246.906H291.693V250.71H281.604V255.909H290.936V259.712H281.604V264.921H291.735V268.725H276.991ZM298.36 268.725V246.906H306.968C308.616 246.906 310.022 247.201 311.187 247.791C312.359 248.373 313.25 249.2 313.861 250.273C314.479 251.338 314.788 252.592 314.788 254.034C314.788 255.482 314.475 256.729 313.85 257.773C313.225 258.81 312.32 259.605 311.134 260.159C309.955 260.713 308.527 260.99 306.851 260.99H301.087V257.283H306.105C306.986 257.283 307.717 257.162 308.3 256.921C308.882 256.679 309.315 256.317 309.6 255.834C309.891 255.351 310.036 254.751 310.036 254.034C310.036 253.309 309.891 252.698 309.6 252.201C309.315 251.704 308.879 251.328 308.289 251.072C307.707 250.809 306.972 250.678 306.084 250.678H302.973V268.725H298.36ZM310.143 258.796L315.565 268.725H310.473L305.168 258.796H310.143Z" fill="#FFE600"/>
</g>
</g>
<defs>
<linearGradient id="paint0_linear_311_52" x1="76.8862" y1="278.619" x2="18.2648" y2="293.274" gradientUnits="userSpaceOnUse">
<stop stop-color="#8A0000"/>
<stop offset="1" stop-color="#AC0A0C"/>
</linearGradient>
<linearGradient id="paint1_linear_311_52" x1="449.11" y1="287.371" x2="299.187" y2="281.641" gradientUnits="userSpaceOnUse">
<stop stop-color="#8A0000"/>
<stop offset="1" stop-color="#AC0A0C"/>
</linearGradient>
<linearGradient id="paint2_linear_311_52" x1="43.0027" y1="276.804" x2="90.435" y2="276.804" gradientUnits="userSpaceOnUse">
<stop stop-color="#8A0000"/>
<stop offset="0.3413" stop-color="#AC0A0C"/>
<stop offset="1" stop-color="#ED1C24"/>
</linearGradient>
<linearGradient id="paint3_linear_311_52" x1="326.907" y1="276.804" x2="374.34" y2="276.804" gradientUnits="userSpaceOnUse">
<stop stop-color="#8A0000"/>
<stop offset="0.3413" stop-color="#AC0A0C"/>
<stop offset="1" stop-color="#ED1C24"/>
</linearGradient>
<linearGradient id="paint4_linear_311_52" x1="43.0027" y1="276.804" x2="90.435" y2="276.804" gradientUnits="userSpaceOnUse">
<stop stop-color="#4F0000"/>
<stop offset="1" stop-color="#8B0608"/>
</linearGradient>
<linearGradient id="paint5_linear_311_52" x1="326.907" y1="276.804" x2="374.34" y2="276.804" gradientUnits="userSpaceOnUse">
<stop stop-color="#4F0000"/>
<stop offset="1" stop-color="#8B0608"/>
</linearGradient>
<linearGradient id="paint6_linear_311_52" x1="48.4214" y1="200.482" x2="372.554" y2="200.482" gradientUnits="userSpaceOnUse">
<stop stop-color="#BD8100"/>
<stop offset="0.9944" stop-color="#FBC01B"/>
</linearGradient>
<linearGradient id="paint7_linear_311_52" x1="52.0913" y1="200.483" x2="368.883" y2="200.483" gradientUnits="userSpaceOnUse">
<stop offset="0.005618" stop-color="#FBC01B"/>
<stop offset="0.2528" stop-color="#FFF5A8"/>
<stop offset="0.3151" stop-color="#F8E997"/>
<stop offset="0.4388" stop-color="#E7CA6A"/>
<stop offset="0.6107" stop-color="#CA9922"/>
<stop offset="0.6877" stop-color="#BD8100"/>
<stop offset="1" stop-color="#FFF5A8"/>
</linearGradient>
<linearGradient id="paint8_linear_311_52" x1="259.425" y1="296.094" x2="184.991" y2="150.66" gradientUnits="userSpaceOnUse">
<stop stop-color="#FFF5A8" stop-opacity="0"/>
<stop offset="0.9944" stop-color="#BA9500"/>
</linearGradient>
<linearGradient id="paint9_linear_311_52" x1="102.368" y1="356.756" x2="297.888" y2="73.6333" gradientUnits="userSpaceOnUse">
<stop stop-color="#FFF5A8" stop-opacity="0"/>
<stop offset="0.9944" stop-color="#BA9500"/>
</linearGradient>
<linearGradient id="paint10_linear_311_52" x1="274.359" y1="270.035" x2="315.675" y2="141.703" gradientUnits="userSpaceOnUse">
<stop offset="0.005618" stop-color="#594710"/>
<stop offset="0.4889" stop-color="#825F08"/>
<stop offset="1" stop-color="#D8B730"/>
</linearGradient>
<linearGradient id="paint11_linear_311_52" x1="288.681" y1="275.412" x2="330.213" y2="146.411" gradientUnits="userSpaceOnUse">
<stop offset="0.005618" stop-color="#594710"/>
<stop offset="0.4889" stop-color="#825F08"/>
<stop offset="1" stop-color="#D8B730"/>
</linearGradient>
<linearGradient id="paint12_linear_311_52" x1="296.054" y1="276.998" x2="336.348" y2="151.84" gradientUnits="userSpaceOnUse">
<stop offset="0.005618" stop-color="#594710"/>
<stop offset="0.4889" stop-color="#825F08"/>
<stop offset="1" stop-color="#D8B730"/>
</linearGradient>
<linearGradient id="paint13_linear_311_52" x1="144.807" y1="270.035" x2="103.491" y2="141.703" gradientUnits="userSpaceOnUse">
<stop offset="0.005618" stop-color="#594710"/>
<stop offset="0.4889" stop-color="#825F08"/>
<stop offset="1" stop-color="#D8B730"/>
</linearGradient>
<linearGradient id="paint14_linear_311_52" x1="130.485" y1="275.412" x2="88.9535" y2="146.411" gradientUnits="userSpaceOnUse">
<stop offset="0.005618" stop-color="#594710"/>
<stop offset="0.4889" stop-color="#825F08"/>
<stop offset="1" stop-color="#D8B730"/>
</linearGradient>
<linearGradient id="paint15_linear_311_52" x1="123.113" y1="276.998" x2="82.8178" y2="151.84" gradientUnits="userSpaceOnUse">
<stop offset="0.005618" stop-color="#594710"/>
<stop offset="0.4889" stop-color="#825F08"/>
<stop offset="1" stop-color="#D8B730"/>
</linearGradient>
<linearGradient id="paint16_linear_311_52" x1="200.741" y1="380.394" x2="212.2" y2="216.147" gradientUnits="userSpaceOnUse">
<stop stop-color="#8A0000"/>
<stop offset="0.3413" stop-color="#AC0A0C"/>
<stop offset="1" stop-color="#ED1C24"/>
</linearGradient>
<linearGradient id="paint17_linear_311_52" x1="203.784" y1="171.408" x2="209.571" y2="94.5196" gradientUnits="userSpaceOnUse">
<stop offset="0.005618" stop-color="#594710"/>
<stop offset="0.6877" stop-color="#825F08"/>
<stop offset="1" stop-color="#FFDF42"/>
</linearGradient>
<linearGradient id="paint18_linear_311_52" x1="235.495" y1="173.795" x2="241.283" y2="96.9068" gradientUnits="userSpaceOnUse">
<stop offset="0.005618" stop-color="#594710"/>
<stop offset="0.6877" stop-color="#825F08"/>
<stop offset="1" stop-color="#FFDF42"/>
</linearGradient>
<linearGradient id="paint19_linear_311_52" x1="172.843" y1="169.079" x2="178.63" y2="92.191" gradientUnits="userSpaceOnUse">
<stop offset="0.005618" stop-color="#594710"/>
<stop offset="0.6877" stop-color="#825F08"/>
<stop offset="1" stop-color="#FFDF42"/>
</linearGradient>
<linearGradient id="paint20_linear_311_52" x1="201.426" y1="390.81" x2="210.728" y2="280.122" gradientUnits="userSpaceOnUse">
<stop offset="0.005618" stop-color="#594710"/>
<stop offset="0.6877" stop-color="#825F08"/>
<stop offset="1" stop-color="#FFDF42"/>
</linearGradient>
<linearGradient id="paint21_linear_311_52" x1="232.496" y1="393.421" x2="241.798" y2="282.734" gradientUnits="userSpaceOnUse">
<stop offset="0.005618" stop-color="#594710"/>
<stop offset="0.6877" stop-color="#825F08"/>
<stop offset="1" stop-color="#FFDF42"/>
</linearGradient>
<linearGradient id="paint22_linear_311_52" x1="169.931" y1="388.164" x2="179.233" y2="277.476" gradientUnits="userSpaceOnUse">
<stop offset="0.005618" stop-color="#594710"/>
<stop offset="0.6877" stop-color="#825F08"/>
<stop offset="1" stop-color="#FFDF42"/>
</linearGradient>
<clipPath id="clip0_311_52">
<rect width="420" height="400" fill="white"/>
</clipPath>
</defs>
</svg>
